<mxfile host="65bd71144e">
    <diagram id="38aptmRS3WO6bUn1OoiQ" name="Page-1">
        <mxGraphModel dx="2615" dy="1495" grid="1" gridSize="10" guides="1" tooltips="1" connect="1" arrows="1" fold="1" page="0" pageScale="1" pageWidth="827" pageHeight="1169" math="0" shadow="0">
            <root>
                <mxCell id="0"/>
                <mxCell id="1" parent="0"/>
                <mxCell id="13" style="edgeStyle=none;html=1;exitX=1;exitY=0.5;exitDx=0;exitDy=0;" parent="1" source="3" edge="1">
                    <mxGeometry relative="1" as="geometry">
                        <mxPoint x="30" y="260" as="targetPoint"/>
                    </mxGeometry>
                </mxCell>
                <mxCell id="3" value="client" style="rounded=1;whiteSpace=wrap;html=1;align=center;" parent="1" vertex="1">
                    <mxGeometry x="-110" y="240" width="80" height="40" as="geometry"/>
                </mxCell>
                <mxCell id="14" style="edgeStyle=none;html=1;exitX=1;exitY=0.5;exitDx=0;exitDy=0;" parent="1" source="4" target="9" edge="1">
                    <mxGeometry relative="1" as="geometry"/>
                </mxCell>
                <mxCell id="4" value="client" style="rounded=1;whiteSpace=wrap;html=1;align=center;" parent="1" vertex="1">
                    <mxGeometry x="60" y="300" width="80" height="40" as="geometry"/>
                </mxCell>
                <mxCell id="15" style="edgeStyle=none;html=1;exitX=1;exitY=0.5;exitDx=0;exitDy=0;" parent="1" source="5" target="10" edge="1">
                    <mxGeometry relative="1" as="geometry"/>
                </mxCell>
                <mxCell id="5" value="client" style="rounded=1;whiteSpace=wrap;html=1;align=center;" parent="1" vertex="1">
                    <mxGeometry x="60" y="360" width="80" height="40" as="geometry"/>
                </mxCell>
                <mxCell id="45" style="edgeStyle=none;html=1;exitX=1;exitY=0.5;exitDx=0;exitDy=0;entryX=0;entryY=0.5;entryDx=0;entryDy=0;fontColor=#FFFFFF;" parent="1" source="8" target="44" edge="1">
                    <mxGeometry relative="1" as="geometry">
                        <Array as="points">
                            <mxPoint x="360" y="260"/>
                            <mxPoint x="360" y="305"/>
                        </Array>
                    </mxGeometry>
                </mxCell>
                <mxCell id="8" value="cmd_1" style="ellipse;whiteSpace=wrap;html=1;" parent="1" vertex="1">
                    <mxGeometry x="200" y="240" width="50" height="40" as="geometry"/>
                </mxCell>
                <mxCell id="46" style="edgeStyle=none;html=1;exitX=1;exitY=0.5;exitDx=0;exitDy=0;fontColor=#FFFFFF;entryX=0;entryY=0.5;entryDx=0;entryDy=0;" parent="1" source="9" target="44" edge="1">
                    <mxGeometry relative="1" as="geometry">
                        <mxPoint x="370" y="320" as="targetPoint"/>
                        <Array as="points">
                            <mxPoint x="360" y="320"/>
                            <mxPoint x="360" y="305"/>
                        </Array>
                    </mxGeometry>
                </mxCell>
                <mxCell id="9" value="cmd_2" style="ellipse;whiteSpace=wrap;html=1;" parent="1" vertex="1">
                    <mxGeometry x="200" y="300" width="50" height="40" as="geometry"/>
                </mxCell>
                <mxCell id="47" style="edgeStyle=none;html=1;exitX=1;exitY=0.5;exitDx=0;exitDy=0;entryX=0;entryY=0.5;entryDx=0;entryDy=0;fontColor=#FFFFFF;" parent="1" source="10" target="44" edge="1">
                    <mxGeometry relative="1" as="geometry">
                        <Array as="points">
                            <mxPoint x="360" y="380"/>
                            <mxPoint x="360" y="305"/>
                        </Array>
                    </mxGeometry>
                </mxCell>
                <mxCell id="10" value="cmd_3" style="ellipse;whiteSpace=wrap;html=1;" parent="1" vertex="1">
                    <mxGeometry x="200" y="360" width="50" height="40" as="geometry"/>
                </mxCell>
                <mxCell id="18" value="" style="shape=cylinder3;whiteSpace=wrap;html=1;boundedLbl=1;backgroundOutline=1;size=15;align=center;fillColor=none;" parent="1" vertex="1">
                    <mxGeometry x="414" y="244" width="170" height="260" as="geometry"/>
                </mxCell>
                <mxCell id="24" value="&lt;font color=&quot;#ffffff&quot;&gt;server&lt;/font&gt;" style="text;html=1;strokeColor=none;fillColor=none;align=center;verticalAlign=middle;whiteSpace=wrap;rounded=0;fontColor=none;" parent="1" vertex="1">
                    <mxGeometry x="469" y="200" width="60" height="30" as="geometry"/>
                </mxCell>
                <mxCell id="25" value="queue" style="swimlane;fontStyle=0;childLayout=stackLayout;horizontal=1;startSize=26;fillColor=none;horizontalStack=0;resizeParent=1;resizeParentMax=0;resizeLast=0;collapsible=1;marginBottom=0;html=1;fontColor=#FFFFFF;" parent="1" vertex="1">
                    <mxGeometry x="720" y="130" width="76" height="156" as="geometry"/>
                </mxCell>
                <mxCell id="26" value="cmd_1" style="text;strokeColor=default;fillColor=#990000;align=left;verticalAlign=top;spacingLeft=4;spacingRight=4;overflow=hidden;rotatable=0;points=[[0,0.5],[1,0.5]];portConstraint=eastwest;whiteSpace=wrap;html=1;fontColor=#FFFFFF;" parent="25" vertex="1">
                    <mxGeometry y="26" width="76" height="26" as="geometry"/>
                </mxCell>
                <mxCell id="27" value="cmd_2" style="text;align=left;verticalAlign=top;spacingLeft=4;spacingRight=4;overflow=hidden;rotatable=0;points=[[0,0.5],[1,0.5]];portConstraint=eastwest;whiteSpace=wrap;html=1;fillColor=#990000;strokeColor=default;" parent="25" vertex="1">
                    <mxGeometry y="52" width="76" height="26" as="geometry"/>
                </mxCell>
                <mxCell id="35" value="cmd_3" style="text;strokeColor=#FFFFFF;fillColor=#a20025;align=left;verticalAlign=top;spacingLeft=4;spacingRight=4;overflow=hidden;rotatable=0;points=[[0,0.5],[1,0.5]];portConstraint=eastwest;whiteSpace=wrap;html=1;fontColor=#ffffff;" parent="25" vertex="1">
                    <mxGeometry y="78" width="76" height="26" as="geometry"/>
                </mxCell>
                <mxCell id="34" value="cmd_4" style="text;strokeColor=none;fillColor=none;align=left;verticalAlign=top;spacingLeft=4;spacingRight=4;overflow=hidden;rotatable=0;points=[[0,0.5],[1,0.5]];portConstraint=eastwest;whiteSpace=wrap;html=1;fontColor=#FFFFFF;" parent="25" vertex="1">
                    <mxGeometry y="104" width="76" height="26" as="geometry"/>
                </mxCell>
                <mxCell id="28" value="cmd_5" style="text;strokeColor=none;fillColor=none;align=left;verticalAlign=top;spacingLeft=4;spacingRight=4;overflow=hidden;rotatable=0;points=[[0,0.5],[1,0.5]];portConstraint=eastwest;whiteSpace=wrap;html=1;fontColor=#FFFFFF;" parent="25" vertex="1">
                    <mxGeometry y="130" width="76" height="26" as="geometry"/>
                </mxCell>
                <mxCell id="36" style="edgeStyle=none;html=1;exitX=1;exitY=0.5;exitDx=0;exitDy=0;" parent="1" source="37" target="38" edge="1">
                    <mxGeometry relative="1" as="geometry"/>
                </mxCell>
                <mxCell id="37" value="client" style="rounded=1;whiteSpace=wrap;html=1;align=center;" parent="1" vertex="1">
                    <mxGeometry x="60" y="424" width="80" height="40" as="geometry"/>
                </mxCell>
                <mxCell id="48" style="edgeStyle=none;html=1;exitX=1;exitY=0.5;exitDx=0;exitDy=0;fontColor=#FFFFFF;entryX=0;entryY=0.5;entryDx=0;entryDy=0;" parent="1" source="38" target="44" edge="1">
                    <mxGeometry relative="1" as="geometry">
                        <mxPoint x="370" y="380" as="targetPoint"/>
                        <Array as="points">
                            <mxPoint x="360" y="444"/>
                            <mxPoint x="360" y="305"/>
                        </Array>
                    </mxGeometry>
                </mxCell>
                <mxCell id="38" value="cmd_4" style="ellipse;whiteSpace=wrap;html=1;" parent="1" vertex="1">
                    <mxGeometry x="200" y="424" width="50" height="40" as="geometry"/>
                </mxCell>
                <mxCell id="40" style="edgeStyle=none;html=1;exitX=1;exitY=0.5;exitDx=0;exitDy=0;" parent="1" source="41" target="42" edge="1">
                    <mxGeometry relative="1" as="geometry"/>
                </mxCell>
                <mxCell id="41" value="client" style="rounded=1;whiteSpace=wrap;html=1;align=center;" parent="1" vertex="1">
                    <mxGeometry x="60" y="480" width="80" height="40" as="geometry"/>
                </mxCell>
                <mxCell id="49" style="edgeStyle=none;html=1;exitX=1;exitY=0.5;exitDx=0;exitDy=0;entryX=0;entryY=0.5;entryDx=0;entryDy=0;fontColor=#FFFFFF;" parent="1" source="42" target="44" edge="1">
                    <mxGeometry relative="1" as="geometry">
                        <Array as="points">
                            <mxPoint x="360" y="500"/>
                            <mxPoint x="360" y="305"/>
                        </Array>
                    </mxGeometry>
                </mxCell>
                <mxCell id="42" value="cmd_5" style="ellipse;whiteSpace=wrap;html=1;" parent="1" vertex="1">
                    <mxGeometry x="200" y="480" width="50" height="40" as="geometry"/>
                </mxCell>
                <mxCell id="57" style="edgeStyle=none;html=1;exitX=1;exitY=0.5;exitDx=0;exitDy=0;entryX=0;entryY=0.5;entryDx=0;entryDy=0;fontColor=#FFFFFF;" parent="1" source="44" target="26" edge="1">
                    <mxGeometry relative="1" as="geometry">
                        <Array as="points">
                            <mxPoint x="640" y="305"/>
                            <mxPoint x="640" y="170"/>
                        </Array>
                    </mxGeometry>
                </mxCell>
                <mxCell id="44" value="Client request queue" style="shape=hexagon;perimeter=hexagonPerimeter2;whiteSpace=wrap;html=1;fixedSize=1;fontColor=#FFFFFF;fillColor=none;" parent="1" vertex="1">
                    <mxGeometry x="440" y="290" width="130" height="30" as="geometry"/>
                </mxCell>
                <mxCell id="58" style="edgeStyle=none;html=1;exitX=0.5;exitY=1;exitDx=0;exitDy=0;fontColor=#FFFFFF;entryX=0.5;entryY=0;entryDx=0;entryDy=0;" parent="1" source="52" target="59" edge="1">
                    <mxGeometry relative="1" as="geometry">
                        <mxPoint x="975" y="180" as="targetPoint"/>
                    </mxGeometry>
                </mxCell>
                <mxCell id="52" value="PRIVMSG #cmsc23300 :Hello everybody" style="rounded=0;whiteSpace=wrap;html=1;fontColor=#FFFFFF;fillColor=none;" parent="1" vertex="1">
                    <mxGeometry x="860" y="130" width="230" height="26" as="geometry"/>
                </mxCell>
                <mxCell id="68" style="edgeStyle=none;html=1;exitX=0.5;exitY=1;exitDx=0;exitDy=0;entryX=0.5;entryY=0;entryDx=0;entryDy=0;fontColor=#FFFFFF;" parent="1" source="59" target="61" edge="1">
                    <mxGeometry relative="1" as="geometry">
                        <Array as="points">
                            <mxPoint x="975" y="310"/>
                            <mxPoint x="1116" y="310"/>
                        </Array>
                    </mxGeometry>
                </mxCell>
                <mxCell id="59" value="str-to-arr" style="rhombus;whiteSpace=wrap;html=1;fontColor=#FFFFFF;fillColor=#990000;" parent="1" vertex="1">
                    <mxGeometry x="902.5" y="184" width="145" height="26" as="geometry"/>
                </mxCell>
                <mxCell id="61" value="Cmd_arr" style="swimlane;fontStyle=1;align=center;verticalAlign=top;childLayout=stackLayout;horizontal=1;startSize=26;horizontalStack=0;resizeParent=1;resizeParentMax=0;resizeLast=0;collapsible=1;marginBottom=0;fontColor=#FFFFFF;fillColor=#000000;" parent="1" vertex="1">
                    <mxGeometry x="1060" y="390" width="112.5" height="130" as="geometry"/>
                </mxCell>
                <mxCell id="65" value="PRIVMSG" style="text;strokeColor=default;fillColor=none;align=left;verticalAlign=top;spacingLeft=4;spacingRight=4;overflow=hidden;rotatable=0;points=[[0,0.5],[1,0.5]];portConstraint=eastwest;fontColor=#FFFFFF;" parent="61" vertex="1">
                    <mxGeometry y="26" width="112.5" height="26" as="geometry"/>
                </mxCell>
                <mxCell id="64" value="#cmsc23300" style="text;strokeColor=default;fillColor=none;align=left;verticalAlign=top;spacingLeft=4;spacingRight=4;overflow=hidden;rotatable=0;points=[[0,0.5],[1,0.5]];portConstraint=eastwest;fontColor=#FFFFFF;" parent="61" vertex="1">
                    <mxGeometry y="52" width="112.5" height="26" as="geometry"/>
                </mxCell>
                <mxCell id="66" value=":Hello" style="text;strokeColor=default;fillColor=none;align=left;verticalAlign=top;spacingLeft=4;spacingRight=4;overflow=hidden;rotatable=0;points=[[0,0.5],[1,0.5]];portConstraint=eastwest;fontColor=#FFFFFF;" parent="61" vertex="1">
                    <mxGeometry y="78" width="112.5" height="26" as="geometry"/>
                </mxCell>
                <mxCell id="67" value="everybody" style="text;strokeColor=none;fillColor=none;align=left;verticalAlign=top;spacingLeft=4;spacingRight=4;overflow=hidden;rotatable=0;points=[[0,0.5],[1,0.5]];portConstraint=eastwest;fontColor=#FFFFFF;" parent="61" vertex="1">
                    <mxGeometry y="104" width="112.5" height="26" as="geometry"/>
                </mxCell>
                <mxCell id="69" style="edgeStyle=none;html=1;exitX=1;exitY=0.5;exitDx=0;exitDy=0;entryX=0;entryY=0.5;entryDx=0;entryDy=0;fontColor=#FFFFFF;" parent="1" source="26" target="52" edge="1">
                    <mxGeometry relative="1" as="geometry">
                        <Array as="points">
                            <mxPoint x="830" y="170"/>
                            <mxPoint x="830" y="143"/>
                        </Array>
                    </mxGeometry>
                </mxCell>
                <mxCell id="70" style="edgeStyle=none;html=1;exitX=1;exitY=0.5;exitDx=0;exitDy=0;fontColor=#FFFFFF;entryX=0.5;entryY=0;entryDx=0;entryDy=0;" parent="1" source="27" target="72" edge="1">
                    <mxGeometry relative="1" as="geometry">
                        <mxPoint x="1390" y="100" as="targetPoint"/>
                        <Array as="points">
                            <mxPoint x="830" y="195"/>
                            <mxPoint x="830" y="100"/>
                            <mxPoint x="1356" y="100"/>
                        </Array>
                    </mxGeometry>
                </mxCell>
                <mxCell id="74" style="edgeStyle=none;html=1;exitX=0.5;exitY=1;exitDx=0;exitDy=0;entryX=0.5;entryY=0;entryDx=0;entryDy=0;fontColor=#FFFFFF;" parent="1" source="72" target="73" edge="1">
                    <mxGeometry relative="1" as="geometry"/>
                </mxCell>
                <mxCell id="402" value="" style="edgeStyle=none;html=1;" edge="1" parent="1" source="72" target="401">
                    <mxGeometry relative="1" as="geometry"/>
                </mxCell>
                <mxCell id="72" value=":doctor!doctor@baz.example.org QUIT :Done for the day, leaving" style="rounded=0;whiteSpace=wrap;html=1;fontColor=#FFFFFF;fillColor=none;" parent="1" vertex="1">
                    <mxGeometry x="1176.88" y="130" width="358.25" height="26" as="geometry"/>
                </mxCell>
                <mxCell id="80" style="edgeStyle=none;html=1;exitX=0.5;exitY=1;exitDx=0;exitDy=0;entryX=0.5;entryY=0;entryDx=0;entryDy=0;fontColor=#FFFFFF;" parent="1" source="73" target="75" edge="1">
                    <mxGeometry relative="1" as="geometry"/>
                </mxCell>
                <mxCell id="73" value="str-to-arr" style="rhombus;whiteSpace=wrap;html=1;fontColor=#FFFFFF;fillColor=#990000;" parent="1" vertex="1">
                    <mxGeometry x="1283.5" y="184" width="145" height="26" as="geometry"/>
                </mxCell>
                <mxCell id="75" value="Cmd_arr" style="swimlane;fontStyle=1;align=center;verticalAlign=top;childLayout=stackLayout;horizontal=1;startSize=26;horizontalStack=0;resizeParent=1;resizeParentMax=0;resizeLast=0;collapsible=1;marginBottom=0;fontColor=#FFFFFF;fillColor=#000000;" parent="1" vertex="1">
                    <mxGeometry x="1261.01" y="392" width="190" height="104" as="geometry"/>
                </mxCell>
                <mxCell id="76" value=":doctor!doctor@baz.example.org" style="text;strokeColor=default;fillColor=none;align=left;verticalAlign=top;spacingLeft=4;spacingRight=4;overflow=hidden;rotatable=0;points=[[0,0.5],[1,0.5]];portConstraint=eastwest;fontColor=#FFFFFF;" parent="75" vertex="1">
                    <mxGeometry y="26" width="190" height="26" as="geometry"/>
                </mxCell>
                <mxCell id="77" value="QUIT" style="text;strokeColor=default;fillColor=none;align=left;verticalAlign=top;spacingLeft=4;spacingRight=4;overflow=hidden;rotatable=0;points=[[0,0.5],[1,0.5]];portConstraint=eastwest;fontColor=#FFFFFF;" parent="75" vertex="1">
                    <mxGeometry y="52" width="190" height="26" as="geometry"/>
                </mxCell>
                <mxCell id="78" value=":Done for the day, leaving" style="text;strokeColor=default;fillColor=none;align=left;verticalAlign=top;spacingLeft=4;spacingRight=4;overflow=hidden;rotatable=0;points=[[0,0.5],[1,0.5]];portConstraint=eastwest;fontColor=#FFFFFF;" parent="75" vertex="1">
                    <mxGeometry y="78" width="190" height="26" as="geometry"/>
                </mxCell>
                <mxCell id="100" style="edgeStyle=none;html=1;exitX=0.5;exitY=1;exitDx=0;exitDy=0;entryX=0.5;entryY=0;entryDx=0;entryDy=0;fontColor=none;" parent="1" source="98" target="99" edge="1">
                    <mxGeometry relative="1" as="geometry"/>
                </mxCell>
                <mxCell id="98" value="JOIN #tardis" style="rounded=0;whiteSpace=wrap;html=1;fontColor=#FFFFFF;fillColor=none;" parent="1" vertex="1">
                    <mxGeometry x="1620" y="130" width="88.25" height="26" as="geometry"/>
                </mxCell>
                <mxCell id="106" style="edgeStyle=none;html=1;exitX=0.5;exitY=1;exitDx=0;exitDy=0;fontColor=none;" parent="1" source="99" target="102" edge="1">
                    <mxGeometry relative="1" as="geometry">
                        <Array as="points">
                            <mxPoint x="1660" y="320"/>
                            <mxPoint x="1605" y="320"/>
                        </Array>
                    </mxGeometry>
                </mxCell>
                <mxCell id="99" value="str-to-arr" style="rhombus;whiteSpace=wrap;html=1;fontColor=#FFFFFF;fillColor=#990000;" parent="1" vertex="1">
                    <mxGeometry x="1591.6200000000001" y="184" width="145" height="26" as="geometry"/>
                </mxCell>
                <mxCell id="101" style="edgeStyle=none;html=1;exitX=1;exitY=0.5;exitDx=0;exitDy=0;entryX=0.5;entryY=0;entryDx=0;entryDy=0;fontColor=none;" parent="1" source="35" target="98" edge="1">
                    <mxGeometry relative="1" as="geometry">
                        <Array as="points">
                            <mxPoint x="830" y="221"/>
                            <mxPoint x="830" y="100"/>
                            <mxPoint x="1664" y="100"/>
                        </Array>
                    </mxGeometry>
                </mxCell>
                <mxCell id="102" value="Cmd_arr" style="swimlane;fontStyle=1;align=center;verticalAlign=top;childLayout=stackLayout;horizontal=1;startSize=26;horizontalStack=0;resizeParent=1;resizeParentMax=0;resizeLast=0;collapsible=1;marginBottom=0;fontColor=#FFFFFF;fillColor=#000000;" parent="1" vertex="1">
                    <mxGeometry x="1509.9999999999998" y="392" width="190" height="78" as="geometry"/>
                </mxCell>
                <mxCell id="103" value="JOIN" style="text;strokeColor=default;fillColor=none;align=left;verticalAlign=top;spacingLeft=4;spacingRight=4;overflow=hidden;rotatable=0;points=[[0,0.5],[1,0.5]];portConstraint=eastwest;fontColor=#FFFFFF;" parent="102" vertex="1">
                    <mxGeometry y="26" width="190" height="26" as="geometry"/>
                </mxCell>
                <mxCell id="104" value="#tardis" style="text;strokeColor=default;fillColor=none;align=left;verticalAlign=top;spacingLeft=4;spacingRight=4;overflow=hidden;rotatable=0;points=[[0,0.5],[1,0.5]];portConstraint=eastwest;fontColor=#FFFFFF;" parent="102" vertex="1">
                    <mxGeometry y="52" width="190" height="26" as="geometry"/>
                </mxCell>
                <mxCell id="108" value="arr_table" style="shape=table;startSize=30;container=1;collapsible=0;childLayout=tableLayout;fontStyle=1;align=left;labelBackgroundColor=none;strokeColor=#FFFFFF;fontColor=default;fillColor=none;" parent="1" vertex="1">
                    <mxGeometry x="1008.25" y="339" width="721.75" height="201" as="geometry"/>
                </mxCell>
                <mxCell id="109" value="" style="shape=tableRow;horizontal=0;startSize=0;swimlaneHead=0;swimlaneBody=0;top=0;left=0;bottom=0;right=0;collapsible=0;dropTarget=0;fillColor=none;points=[[0,0.5],[1,0.5]];portConstraint=eastwest;labelBackgroundColor=#18141D;strokeColor=#FFFFFF;fontColor=none;" parent="108" vertex="1">
                    <mxGeometry y="30" width="721.75" height="171" as="geometry"/>
                </mxCell>
                <mxCell id="110" value="" style="shape=partialRectangle;html=1;whiteSpace=wrap;connectable=0;fillColor=none;top=0;left=0;bottom=0;right=0;overflow=hidden;labelBackgroundColor=#18141D;strokeColor=#FFFFFF;fontColor=none;" parent="109" vertex="1">
                    <mxGeometry width="242" height="171" as="geometry">
                        <mxRectangle width="242" height="171" as="alternateBounds"/>
                    </mxGeometry>
                </mxCell>
                <mxCell id="111" value="" style="shape=partialRectangle;html=1;whiteSpace=wrap;connectable=0;fillColor=none;top=0;left=0;bottom=0;right=0;overflow=hidden;labelBackgroundColor=#18141D;strokeColor=#FFFFFF;fontColor=none;" parent="109" vertex="1">
                    <mxGeometry x="242" width="238" height="171" as="geometry">
                        <mxRectangle width="238" height="171" as="alternateBounds"/>
                    </mxGeometry>
                </mxCell>
                <mxCell id="112" value="" style="shape=partialRectangle;html=1;whiteSpace=wrap;connectable=0;fillColor=none;top=0;left=0;bottom=0;right=0;overflow=hidden;labelBackgroundColor=#18141D;strokeColor=#FFFFFF;fontColor=none;" parent="109" vertex="1">
                    <mxGeometry x="480" width="242" height="171" as="geometry">
                        <mxRectangle width="242" height="171" as="alternateBounds"/>
                    </mxGeometry>
                </mxCell>
                <mxCell id="123" style="edgeStyle=none;html=1;exitX=1;exitY=0.5;exitDx=0;exitDy=0;fontColor=default;entryX=0;entryY=0.5;entryDx=0;entryDy=0;" parent="1" source="121" target="124" edge="1">
                    <mxGeometry relative="1" as="geometry">
                        <mxPoint x="1550" y="640" as="targetPoint"/>
                    </mxGeometry>
                </mxCell>
                <mxCell id="121" value="Transfer command" style="shape=datastore;whiteSpace=wrap;html=1;labelBackgroundColor=none;strokeColor=#FFFFFF;fontColor=default;fillColor=none;" parent="1" vertex="1">
                    <mxGeometry x="1261.01" y="600" width="190" height="80" as="geometry"/>
                </mxCell>
                <mxCell id="122" style="edgeStyle=none;html=1;exitX=0;exitY=0.5;exitDx=0;exitDy=0;entryX=0;entryY=0.5;entryDx=0;entryDy=0;fontColor=default;" parent="1" source="109" target="121" edge="1">
                    <mxGeometry relative="1" as="geometry">
                        <Array as="points">
                            <mxPoint x="940" y="455"/>
                            <mxPoint x="940" y="640"/>
                        </Array>
                    </mxGeometry>
                </mxCell>
                <mxCell id="219" style="edgeStyle=none;html=1;exitX=1;exitY=0.5;exitDx=0;exitDy=0;entryX=-0.016;entryY=0.109;entryDx=0;entryDy=0;fontColor=default;entryPerimeter=0;" parent="1" source="124" target="202" edge="1">
                    <mxGeometry relative="1" as="geometry">
                        <Array as="points">
                            <mxPoint x="1880" y="640"/>
                            <mxPoint x="1880" y="345"/>
                        </Array>
                    </mxGeometry>
                </mxCell>
                <mxCell id="124" value="&lt;h1&gt;&lt;span style=&quot;font-size: 12px; font-weight: 400;&quot;&gt;dependanr de la command la function va l'envoyer a la comme function/methode&lt;/span&gt;&lt;/h1&gt;" style="text;html=1;strokeColor=default;fillColor=none;spacing=5;spacingTop=-20;whiteSpace=wrap;overflow=hidden;rounded=0;labelBackgroundColor=none;fontColor=default;" parent="1" vertex="1">
                    <mxGeometry x="1569.12" y="590" width="190" height="100" as="geometry"/>
                </mxCell>
                <mxCell id="226" style="edgeStyle=none;html=1;" parent="1" source="202" edge="1">
                    <mxGeometry relative="1" as="geometry">
                        <mxPoint x="2560" y="450" as="targetPoint"/>
                    </mxGeometry>
                </mxCell>
                <mxCell id="230" style="edgeStyle=none;html=1;fontSize=16;entryX=0.5;entryY=0;entryDx=0;entryDy=0;" parent="1" source="202" target="231" edge="1">
                    <mxGeometry relative="1" as="geometry">
                        <mxPoint x="2560" y="660" as="targetPoint"/>
                        <Array as="points">
                            <mxPoint x="2560" y="430"/>
                            <mxPoint x="2340" y="430"/>
                            <mxPoint x="2340" y="600"/>
                            <mxPoint x="2560" y="600"/>
                        </Array>
                    </mxGeometry>
                </mxCell>
                <mxCell id="202" value="String arr_of_command" style="swimlane;fontStyle=0;childLayout=stackLayout;horizontal=1;startSize=30;fillColor=none;horizontalStack=0;resizeParent=1;resizeParentMax=0;resizeLast=0;collapsible=1;marginBottom=0;html=1;labelBackgroundColor=none;strokeColor=default;fontColor=default;" parent="1" vertex="1">
                    <mxGeometry x="2060" y="339" width="1000" height="56" as="geometry"/>
                </mxCell>
                <mxCell id="204" value="&quot;PRIVMSG&quot;" style="text;strokeColor=default;fillColor=none;align=left;verticalAlign=top;spacingLeft=4;spacingRight=4;overflow=hidden;rotatable=0;points=[[0,0.5],[1,0.5]];portConstraint=eastwest;whiteSpace=wrap;html=1;labelBackgroundColor=none;fontColor=default;" parent="1" vertex="1">
                    <mxGeometry x="2140" y="369" width="80" height="26" as="geometry"/>
                </mxCell>
                <mxCell id="206" value="&quot;DIE&quot;" style="text;strokeColor=default;fillColor=none;align=left;verticalAlign=top;spacingLeft=4;spacingRight=4;overflow=hidden;rotatable=0;points=[[0,0.5],[1,0.5]];portConstraint=eastwest;whiteSpace=wrap;html=1;labelBackgroundColor=none;fontColor=default;" parent="1" vertex="1">
                    <mxGeometry x="2220" y="369" width="70" height="26" as="geometry"/>
                </mxCell>
                <mxCell id="207" value="&quot;ISON&quot;" style="text;strokeColor=default;fillColor=none;align=left;verticalAlign=top;spacingLeft=4;spacingRight=4;overflow=hidden;rotatable=0;points=[[0,0.5],[1,0.5]];portConstraint=eastwest;whiteSpace=wrap;html=1;labelBackgroundColor=none;fontColor=default;" parent="1" vertex="1">
                    <mxGeometry x="2290" y="369" width="80" height="26" as="geometry"/>
                </mxCell>
                <mxCell id="209" value="&quot;JOIN&quot;" style="text;strokeColor=default;fillColor=none;align=left;verticalAlign=top;spacingLeft=4;spacingRight=4;overflow=hidden;rotatable=0;points=[[0,0.5],[1,0.5]];portConstraint=eastwest;whiteSpace=wrap;html=1;labelBackgroundColor=none;fontColor=default;" parent="1" vertex="1">
                    <mxGeometry x="2370" y="369" width="80" height="26" as="geometry"/>
                </mxCell>
                <mxCell id="211" value="&quot;MODE&quot;" style="text;strokeColor=default;fillColor=none;align=left;verticalAlign=top;spacingLeft=4;spacingRight=4;overflow=hidden;rotatable=0;points=[[0,0.5],[1,0.5]];portConstraint=eastwest;whiteSpace=wrap;html=1;labelBackgroundColor=none;fontColor=default;" parent="1" vertex="1">
                    <mxGeometry x="2450" y="369" width="80" height="26" as="geometry"/>
                </mxCell>
                <mxCell id="214" value="&quot;NAMES&quot;" style="text;strokeColor=default;fillColor=none;align=left;verticalAlign=top;spacingLeft=4;spacingRight=4;overflow=hidden;rotatable=0;points=[[0,0.5],[1,0.5]];portConstraint=eastwest;whiteSpace=wrap;html=1;labelBackgroundColor=none;fontColor=default;" parent="1" vertex="1">
                    <mxGeometry x="2530" y="369" width="80" height="26" as="geometry"/>
                </mxCell>
                <mxCell id="213" value="&quot;KICK&quot;" style="text;strokeColor=default;fillColor=none;align=left;verticalAlign=top;spacingLeft=4;spacingRight=4;overflow=hidden;rotatable=0;points=[[0,0.5],[1,0.5]];portConstraint=eastwest;whiteSpace=wrap;html=1;labelBackgroundColor=none;fontColor=default;" parent="1" vertex="1">
                    <mxGeometry x="2610" y="369" width="70" height="26" as="geometry"/>
                </mxCell>
                <mxCell id="208" value="INVITE" style="text;strokeColor=default;fillColor=none;align=left;verticalAlign=top;spacingLeft=4;spacingRight=4;overflow=hidden;rotatable=0;points=[[0,0.5],[1,0.5]];portConstraint=eastwest;whiteSpace=wrap;html=1;labelBackgroundColor=none;fontColor=default;" parent="1" vertex="1">
                    <mxGeometry x="2680" y="369" width="80" height="26" as="geometry"/>
                </mxCell>
                <mxCell id="205" value="&quot;CONNECT&quot;" style="text;strokeColor=default;fillColor=none;align=left;verticalAlign=top;spacingLeft=4;spacingRight=4;overflow=hidden;rotatable=0;points=[[0,0.5],[1,0.5]];portConstraint=eastwest;whiteSpace=wrap;html=1;labelBackgroundColor=none;fontColor=default;" parent="1" vertex="1">
                    <mxGeometry x="2760" y="369" width="80" height="26" as="geometry"/>
                </mxCell>
                <mxCell id="210" value="&quot;LIST&quot;" style="text;strokeColor=default;fillColor=none;align=left;verticalAlign=top;spacingLeft=4;spacingRight=4;overflow=hidden;rotatable=0;points=[[0,0.5],[1,0.5]];portConstraint=eastwest;whiteSpace=wrap;html=1;labelBackgroundColor=none;fontColor=default;" parent="1" vertex="1">
                    <mxGeometry x="2840" y="369" width="70" height="26" as="geometry"/>
                </mxCell>
                <mxCell id="212" value="&quot;TOPIC&quot;" style="text;strokeColor=default;fillColor=none;align=left;verticalAlign=top;spacingLeft=4;spacingRight=4;overflow=hidden;rotatable=0;points=[[0,0.5],[1,0.5]];portConstraint=eastwest;whiteSpace=wrap;html=1;labelBackgroundColor=none;fontColor=default;" parent="1" vertex="1">
                    <mxGeometry x="2910" y="369" width="80" height="26" as="geometry"/>
                </mxCell>
                <mxCell id="215" value="&quot;QUIT&quot;" style="text;strokeColor=default;fillColor=none;align=left;verticalAlign=top;spacingLeft=4;spacingRight=4;overflow=hidden;rotatable=0;points=[[0,0.5],[1,0.5]];portConstraint=eastwest;whiteSpace=wrap;html=1;labelBackgroundColor=none;fontColor=default;" parent="1" vertex="1">
                    <mxGeometry x="2990" y="369" width="70" height="26" as="geometry"/>
                </mxCell>
                <mxCell id="203" value="&quot;JOIN&quot;" style="text;strokeColor=default;fillColor=none;align=left;verticalAlign=top;spacingLeft=4;spacingRight=4;overflow=hidden;rotatable=0;points=[[0,0.5],[1,0.5]];portConstraint=eastwest;whiteSpace=wrap;html=1;labelBackgroundColor=none;fontColor=default;" parent="1" vertex="1">
                    <mxGeometry x="2060" y="369" width="80" height="26" as="geometry"/>
                </mxCell>
                <mxCell id="229" style="edgeStyle=none;html=1;exitX=0.5;exitY=1;exitDx=0;exitDy=0;entryX=0.5;entryY=0;entryDx=0;entryDy=0;fontSize=16;" parent="1" source="227" target="228" edge="1">
                    <mxGeometry relative="1" as="geometry"/>
                </mxCell>
                <mxCell id="227" value="&lt;font style=&quot;font-size: 16px;&quot;&gt;if command name match arr_of_command [i]&lt;/font&gt;" style="text;html=1;strokeColor=default;fillColor=none;align=center;verticalAlign=middle;whiteSpace=wrap;rounded=0;" parent="1" vertex="1">
                    <mxGeometry x="2385" y="450" width="350" height="30" as="geometry"/>
                </mxCell>
                <mxCell id="391" style="edgeStyle=none;html=1;exitX=1;exitY=0.5;exitDx=0;exitDy=0;entryX=1;entryY=0.5;entryDx=0;entryDy=0;fontSize=16;" parent="1" source="228" target="389" edge="1">
                    <mxGeometry relative="1" as="geometry">
                        <Array as="points">
                            <mxPoint x="3400" y="534"/>
                            <mxPoint x="3400" y="1850"/>
                        </Array>
                    </mxGeometry>
                </mxCell>
                <mxCell id="228" value="call command" style="shape=datastore;whiteSpace=wrap;html=1;strokeColor=default;fontSize=16;" parent="1" vertex="1">
                    <mxGeometry x="2440" y="504" width="240" height="60" as="geometry"/>
                </mxCell>
                <mxCell id="233" style="edgeStyle=none;html=1;exitX=0.5;exitY=1;exitDx=0;exitDy=0;entryX=0.5;entryY=0;entryDx=0;entryDy=0;fontSize=16;" parent="1" source="231" target="232" edge="1">
                    <mxGeometry relative="1" as="geometry"/>
                </mxCell>
                <mxCell id="231" value="&lt;font style=&quot;font-size: 16px;&quot;&gt;else&lt;/font&gt;" style="text;html=1;strokeColor=default;fillColor=none;align=center;verticalAlign=middle;whiteSpace=wrap;rounded=0;" parent="1" vertex="1">
                    <mxGeometry x="2385" y="640" width="350" height="30" as="geometry"/>
                </mxCell>
                <mxCell id="232" value="call error command not found" style="shape=datastore;whiteSpace=wrap;html=1;strokeColor=default;fontSize=16;" parent="1" vertex="1">
                    <mxGeometry x="2440" y="700" width="240" height="60" as="geometry"/>
                </mxCell>
                <mxCell id="235" style="edgeStyle=none;html=1;fontSize=16;entryX=0;entryY=0;entryDx=0;entryDy=30;entryPerimeter=0;" parent="1" source="234" target="236" edge="1">
                    <mxGeometry relative="1" as="geometry">
                        <mxPoint x="910" y="960" as="targetPoint"/>
                        <Array as="points">
                            <mxPoint x="800" y="360"/>
                            <mxPoint x="800" y="960"/>
                        </Array>
                    </mxGeometry>
                </mxCell>
                <mxCell id="234" value="User container" style="shape=hexagon;perimeter=hexagonPerimeter2;whiteSpace=wrap;html=1;fixedSize=1;fontColor=#FFFFFF;fillColor=none;" parent="1" vertex="1">
                    <mxGeometry x="440" y="339" width="130" height="30" as="geometry"/>
                </mxCell>
                <mxCell id="241" style="edgeStyle=none;html=1;exitX=0;exitY=0;exitDx=120;exitDy=50;exitPerimeter=0;fontSize=16;" parent="1" source="236" edge="1">
                    <mxGeometry relative="1" as="geometry">
                        <mxPoint x="1050" y="980" as="targetPoint"/>
                    </mxGeometry>
                </mxCell>
                <mxCell id="236" value="User map" style="shape=cube;whiteSpace=wrap;html=1;boundedLbl=1;backgroundOutline=1;darkOpacity=0.05;darkOpacity2=0.1;strokeColor=default;fontSize=16;" parent="1" vertex="1">
                    <mxGeometry x="870" y="930" width="120" height="80" as="geometry"/>
                </mxCell>
                <mxCell id="237" value="User class" style="swimlane;fontStyle=1;align=center;verticalAlign=top;childLayout=stackLayout;horizontal=1;startSize=26;horizontalStack=0;resizeParent=1;resizeParentMax=0;resizeLast=0;collapsible=1;marginBottom=0;strokeColor=default;fontSize=16;" parent="1" vertex="1">
                    <mxGeometry x="1080" y="940" width="160" height="86" as="geometry"/>
                </mxCell>
                <mxCell id="238" value="Fd" style="text;strokeColor=none;fillColor=none;align=left;verticalAlign=top;spacingLeft=4;spacingRight=4;overflow=hidden;rotatable=0;points=[[0,0.5],[1,0.5]];portConstraint=eastwest;fontSize=16;" parent="237" vertex="1">
                    <mxGeometry y="26" width="160" height="26" as="geometry"/>
                </mxCell>
                <mxCell id="239" value="" style="line;strokeWidth=1;fillColor=none;align=left;verticalAlign=middle;spacingTop=-1;spacingLeft=3;spacingRight=3;rotatable=0;labelPosition=right;points=[];portConstraint=eastwest;strokeColor=inherit;fontSize=16;" parent="237" vertex="1">
                    <mxGeometry y="52" width="160" height="8" as="geometry"/>
                </mxCell>
                <mxCell id="240" value="Nick name" style="text;strokeColor=none;fillColor=none;align=left;verticalAlign=top;spacingLeft=4;spacingRight=4;overflow=hidden;rotatable=0;points=[[0,0.5],[1,0.5]];portConstraint=eastwest;fontSize=16;" parent="237" vertex="1">
                    <mxGeometry y="60" width="160" height="26" as="geometry"/>
                </mxCell>
                <mxCell id="243" value="Username" style="text;strokeColor=default;fillColor=none;align=left;verticalAlign=top;spacingLeft=4;spacingRight=4;overflow=hidden;rotatable=0;points=[[0,0.5],[1,0.5]];portConstraint=eastwest;fontSize=16;" parent="1" vertex="1">
                    <mxGeometry x="1080" y="1026" width="160" height="26" as="geometry"/>
                </mxCell>
                <mxCell id="244" value="channel" style="text;strokeColor=default;fillColor=none;align=left;verticalAlign=top;spacingLeft=4;spacingRight=4;overflow=hidden;rotatable=0;points=[[0,0.5],[1,0.5]];portConstraint=eastwest;fontSize=16;" parent="1" vertex="1">
                    <mxGeometry x="1080" y="1052" width="160" height="26" as="geometry"/>
                </mxCell>
                <mxCell id="246" value="User class" style="swimlane;fontStyle=1;align=center;verticalAlign=top;childLayout=stackLayout;horizontal=1;startSize=26;horizontalStack=0;resizeParent=1;resizeParentMax=0;resizeLast=0;collapsible=1;marginBottom=0;strokeColor=default;fontSize=16;" parent="1" vertex="1">
                    <mxGeometry x="1320" y="940" width="160" height="86" as="geometry"/>
                </mxCell>
                <mxCell id="247" value="Fd" style="text;strokeColor=none;fillColor=none;align=left;verticalAlign=top;spacingLeft=4;spacingRight=4;overflow=hidden;rotatable=0;points=[[0,0.5],[1,0.5]];portConstraint=eastwest;fontSize=16;" parent="246" vertex="1">
                    <mxGeometry y="26" width="160" height="26" as="geometry"/>
                </mxCell>
                <mxCell id="248" value="" style="line;strokeWidth=1;fillColor=none;align=left;verticalAlign=middle;spacingTop=-1;spacingLeft=3;spacingRight=3;rotatable=0;labelPosition=right;points=[];portConstraint=eastwest;strokeColor=inherit;fontSize=16;" parent="246" vertex="1">
                    <mxGeometry y="52" width="160" height="8" as="geometry"/>
                </mxCell>
                <mxCell id="249" value="Nick name" style="text;strokeColor=none;fillColor=none;align=left;verticalAlign=top;spacingLeft=4;spacingRight=4;overflow=hidden;rotatable=0;points=[[0,0.5],[1,0.5]];portConstraint=eastwest;fontSize=16;" parent="246" vertex="1">
                    <mxGeometry y="60" width="160" height="26" as="geometry"/>
                </mxCell>
                <mxCell id="250" value="Username" style="text;strokeColor=default;fillColor=none;align=left;verticalAlign=top;spacingLeft=4;spacingRight=4;overflow=hidden;rotatable=0;points=[[0,0.5],[1,0.5]];portConstraint=eastwest;fontSize=16;" parent="1" vertex="1">
                    <mxGeometry x="1320" y="1026" width="160" height="26" as="geometry"/>
                </mxCell>
                <mxCell id="251" value="channel" style="text;strokeColor=default;fillColor=none;align=left;verticalAlign=top;spacingLeft=4;spacingRight=4;overflow=hidden;rotatable=0;points=[[0,0.5],[1,0.5]];portConstraint=eastwest;fontSize=16;" parent="1" vertex="1">
                    <mxGeometry x="1320" y="1052" width="160" height="26" as="geometry"/>
                </mxCell>
                <mxCell id="252" value="User class" style="swimlane;fontStyle=1;align=center;verticalAlign=top;childLayout=stackLayout;horizontal=1;startSize=26;horizontalStack=0;resizeParent=1;resizeParentMax=0;resizeLast=0;collapsible=1;marginBottom=0;strokeColor=default;fontSize=16;" parent="1" vertex="1">
                    <mxGeometry x="1560" y="940" width="160" height="86" as="geometry"/>
                </mxCell>
                <mxCell id="253" value="Fd" style="text;strokeColor=none;fillColor=none;align=left;verticalAlign=top;spacingLeft=4;spacingRight=4;overflow=hidden;rotatable=0;points=[[0,0.5],[1,0.5]];portConstraint=eastwest;fontSize=16;" parent="252" vertex="1">
                    <mxGeometry y="26" width="160" height="26" as="geometry"/>
                </mxCell>
                <mxCell id="254" value="" style="line;strokeWidth=1;fillColor=none;align=left;verticalAlign=middle;spacingTop=-1;spacingLeft=3;spacingRight=3;rotatable=0;labelPosition=right;points=[];portConstraint=eastwest;strokeColor=inherit;fontSize=16;" parent="252" vertex="1">
                    <mxGeometry y="52" width="160" height="8" as="geometry"/>
                </mxCell>
                <mxCell id="255" value="Nick name" style="text;strokeColor=none;fillColor=none;align=left;verticalAlign=top;spacingLeft=4;spacingRight=4;overflow=hidden;rotatable=0;points=[[0,0.5],[1,0.5]];portConstraint=eastwest;fontSize=16;" parent="252" vertex="1">
                    <mxGeometry y="60" width="160" height="26" as="geometry"/>
                </mxCell>
                <mxCell id="256" value="Username" style="text;strokeColor=default;fillColor=none;align=left;verticalAlign=top;spacingLeft=4;spacingRight=4;overflow=hidden;rotatable=0;points=[[0,0.5],[1,0.5]];portConstraint=eastwest;fontSize=16;" parent="1" vertex="1">
                    <mxGeometry x="1560" y="1026" width="160" height="26" as="geometry"/>
                </mxCell>
                <mxCell id="257" value="channel" style="text;strokeColor=default;fillColor=none;align=left;verticalAlign=top;spacingLeft=4;spacingRight=4;overflow=hidden;rotatable=0;points=[[0,0.5],[1,0.5]];portConstraint=eastwest;fontSize=16;" parent="1" vertex="1">
                    <mxGeometry x="1560" y="1052" width="160" height="26" as="geometry"/>
                </mxCell>
                <mxCell id="258" value="User class" style="swimlane;fontStyle=1;align=center;verticalAlign=top;childLayout=stackLayout;horizontal=1;startSize=26;horizontalStack=0;resizeParent=1;resizeParentMax=0;resizeLast=0;collapsible=1;marginBottom=0;strokeColor=default;fontSize=16;" parent="1" vertex="1">
                    <mxGeometry x="1800" y="940" width="160" height="86" as="geometry"/>
                </mxCell>
                <mxCell id="259" value="Fd" style="text;strokeColor=none;fillColor=none;align=left;verticalAlign=top;spacingLeft=4;spacingRight=4;overflow=hidden;rotatable=0;points=[[0,0.5],[1,0.5]];portConstraint=eastwest;fontSize=16;" parent="258" vertex="1">
                    <mxGeometry y="26" width="160" height="26" as="geometry"/>
                </mxCell>
                <mxCell id="260" value="" style="line;strokeWidth=1;fillColor=none;align=left;verticalAlign=middle;spacingTop=-1;spacingLeft=3;spacingRight=3;rotatable=0;labelPosition=right;points=[];portConstraint=eastwest;strokeColor=inherit;fontSize=16;" parent="258" vertex="1">
                    <mxGeometry y="52" width="160" height="8" as="geometry"/>
                </mxCell>
                <mxCell id="261" value="Nick name" style="text;strokeColor=none;fillColor=none;align=left;verticalAlign=top;spacingLeft=4;spacingRight=4;overflow=hidden;rotatable=0;points=[[0,0.5],[1,0.5]];portConstraint=eastwest;fontSize=16;" parent="258" vertex="1">
                    <mxGeometry y="60" width="160" height="26" as="geometry"/>
                </mxCell>
                <mxCell id="262" value="Username" style="text;strokeColor=default;fillColor=none;align=left;verticalAlign=top;spacingLeft=4;spacingRight=4;overflow=hidden;rotatable=0;points=[[0,0.5],[1,0.5]];portConstraint=eastwest;fontSize=16;" parent="1" vertex="1">
                    <mxGeometry x="1800" y="1026" width="160" height="26" as="geometry"/>
                </mxCell>
                <mxCell id="263" value="channel" style="text;strokeColor=default;fillColor=none;align=left;verticalAlign=top;spacingLeft=4;spacingRight=4;overflow=hidden;rotatable=0;points=[[0,0.5],[1,0.5]];portConstraint=eastwest;fontSize=16;" parent="1" vertex="1">
                    <mxGeometry x="1800" y="1052" width="160" height="26" as="geometry"/>
                </mxCell>
                <mxCell id="264" value="User class" style="swimlane;fontStyle=1;align=center;verticalAlign=top;childLayout=stackLayout;horizontal=1;startSize=26;horizontalStack=0;resizeParent=1;resizeParentMax=0;resizeLast=0;collapsible=1;marginBottom=0;strokeColor=default;fontSize=16;" parent="1" vertex="1">
                    <mxGeometry x="2040" y="940" width="160" height="86" as="geometry"/>
                </mxCell>
                <mxCell id="265" value="Fd" style="text;strokeColor=none;fillColor=none;align=left;verticalAlign=top;spacingLeft=4;spacingRight=4;overflow=hidden;rotatable=0;points=[[0,0.5],[1,0.5]];portConstraint=eastwest;fontSize=16;" parent="264" vertex="1">
                    <mxGeometry y="26" width="160" height="26" as="geometry"/>
                </mxCell>
                <mxCell id="266" value="" style="line;strokeWidth=1;fillColor=none;align=left;verticalAlign=middle;spacingTop=-1;spacingLeft=3;spacingRight=3;rotatable=0;labelPosition=right;points=[];portConstraint=eastwest;strokeColor=inherit;fontSize=16;" parent="264" vertex="1">
                    <mxGeometry y="52" width="160" height="8" as="geometry"/>
                </mxCell>
                <mxCell id="267" value="Nick name" style="text;strokeColor=none;fillColor=none;align=left;verticalAlign=top;spacingLeft=4;spacingRight=4;overflow=hidden;rotatable=0;points=[[0,0.5],[1,0.5]];portConstraint=eastwest;fontSize=16;" parent="264" vertex="1">
                    <mxGeometry y="60" width="160" height="26" as="geometry"/>
                </mxCell>
                <mxCell id="268" value="Username" style="text;strokeColor=default;fillColor=none;align=left;verticalAlign=top;spacingLeft=4;spacingRight=4;overflow=hidden;rotatable=0;points=[[0,0.5],[1,0.5]];portConstraint=eastwest;fontSize=16;" parent="1" vertex="1">
                    <mxGeometry x="2040" y="1026" width="160" height="26" as="geometry"/>
                </mxCell>
                <mxCell id="269" value="channel" style="text;strokeColor=default;fillColor=none;align=left;verticalAlign=top;spacingLeft=4;spacingRight=4;overflow=hidden;rotatable=0;points=[[0,0.5],[1,0.5]];portConstraint=eastwest;fontSize=16;" parent="1" vertex="1">
                    <mxGeometry x="2040" y="1052" width="160" height="26" as="geometry"/>
                </mxCell>
                <mxCell id="270" value="" style="rounded=0;whiteSpace=wrap;html=1;strokeColor=default;fontSize=16;fillColor=none;strokeWidth=2;" parent="1" vertex="1">
                    <mxGeometry x="1047.5" y="860" width="1192.5" height="280" as="geometry"/>
                </mxCell>
                <mxCell id="271" value="" style="line;strokeWidth=2;direction=south;html=1;perimeter=backbonePerimeter;points=[];outlineConnect=0;strokeColor=default;fontSize=16;fillColor=none;" parent="1" vertex="1">
                    <mxGeometry x="1273.5" y="860" width="10" height="280" as="geometry"/>
                </mxCell>
                <mxCell id="272" value="" style="line;strokeWidth=2;direction=south;html=1;perimeter=backbonePerimeter;points=[];outlineConnect=0;strokeColor=default;fontSize=16;fillColor=none;" parent="1" vertex="1">
                    <mxGeometry x="1510" y="860" width="10" height="280" as="geometry"/>
                </mxCell>
                <mxCell id="273" value="" style="line;strokeWidth=2;direction=south;html=1;perimeter=backbonePerimeter;points=[];outlineConnect=0;strokeColor=default;fontSize=16;fillColor=none;" parent="1" vertex="1">
                    <mxGeometry x="1759.12" y="860" width="10" height="280" as="geometry"/>
                </mxCell>
                <mxCell id="274" value="" style="line;strokeWidth=2;direction=south;html=1;perimeter=backbonePerimeter;points=[];outlineConnect=0;strokeColor=default;fontSize=16;fillColor=none;" parent="1" vertex="1">
                    <mxGeometry x="2000" y="860" width="10" height="280" as="geometry"/>
                </mxCell>
                <mxCell id="276" style="edgeStyle=none;html=1;exitX=1;exitY=0.5;exitDx=0;exitDy=0;fontSize=16;entryX=0;entryY=0;entryDx=0;entryDy=30;entryPerimeter=0;" parent="1" source="275" target="277" edge="1">
                    <mxGeometry relative="1" as="geometry">
                        <mxPoint x="910" y="1390" as="targetPoint"/>
                        <Array as="points">
                            <mxPoint x="800" y="405"/>
                            <mxPoint x="800" y="1400"/>
                        </Array>
                    </mxGeometry>
                </mxCell>
                <mxCell id="275" value="Channel container" style="shape=hexagon;perimeter=hexagonPerimeter2;whiteSpace=wrap;html=1;fixedSize=1;fontColor=#FFFFFF;fillColor=none;" parent="1" vertex="1">
                    <mxGeometry x="440" y="390" width="130" height="30" as="geometry"/>
                </mxCell>
                <mxCell id="337" style="edgeStyle=none;html=1;exitX=0;exitY=0;exitDx=120.00000000000001;exitDy=50;exitPerimeter=0;entryX=0;entryY=0.464;entryDx=0;entryDy=0;entryPerimeter=0;fontSize=16;" parent="1" source="277" target="312" edge="1">
                    <mxGeometry relative="1" as="geometry"/>
                </mxCell>
                <mxCell id="277" value="Channel map" style="shape=cube;whiteSpace=wrap;html=1;boundedLbl=1;backgroundOutline=1;darkOpacity=0.05;darkOpacity2=0.1;strokeColor=default;fontSize=16;" parent="1" vertex="1">
                    <mxGeometry x="870" y="1370" width="120" height="80" as="geometry"/>
                </mxCell>
                <mxCell id="278" value="Channel class" style="swimlane;fontStyle=1;align=center;verticalAlign=top;childLayout=stackLayout;horizontal=1;startSize=26;horizontalStack=0;resizeParent=1;resizeParentMax=0;resizeLast=0;collapsible=1;marginBottom=0;strokeColor=default;fontSize=16;" parent="1" vertex="1">
                    <mxGeometry x="1080" y="1350" width="160" height="86" as="geometry"/>
                </mxCell>
                <mxCell id="279" value="Fd" style="text;strokeColor=none;fillColor=none;align=left;verticalAlign=top;spacingLeft=4;spacingRight=4;overflow=hidden;rotatable=0;points=[[0,0.5],[1,0.5]];portConstraint=eastwest;fontSize=16;" parent="278" vertex="1">
                    <mxGeometry y="26" width="160" height="26" as="geometry"/>
                </mxCell>
                <mxCell id="280" value="" style="line;strokeWidth=1;fillColor=none;align=left;verticalAlign=middle;spacingTop=-1;spacingLeft=3;spacingRight=3;rotatable=0;labelPosition=right;points=[];portConstraint=eastwest;strokeColor=inherit;fontSize=16;" parent="278" vertex="1">
                    <mxGeometry y="52" width="160" height="8" as="geometry"/>
                </mxCell>
                <mxCell id="281" value="User container" style="text;strokeColor=none;fillColor=none;align=left;verticalAlign=top;spacingLeft=4;spacingRight=4;overflow=hidden;rotatable=0;points=[[0,0.5],[1,0.5]];portConstraint=eastwest;fontSize=16;" parent="278" vertex="1">
                    <mxGeometry y="60" width="160" height="26" as="geometry"/>
                </mxCell>
                <mxCell id="282" value="channel name" style="text;strokeColor=default;fillColor=none;align=left;verticalAlign=top;spacingLeft=4;spacingRight=4;overflow=hidden;rotatable=0;points=[[0,0.5],[1,0.5]];portConstraint=eastwest;fontSize=16;" parent="1" vertex="1">
                    <mxGeometry x="1080" y="1436" width="160" height="26" as="geometry"/>
                </mxCell>
                <mxCell id="283" value="broadcast method" style="text;strokeColor=default;fillColor=none;align=left;verticalAlign=top;spacingLeft=4;spacingRight=4;overflow=hidden;rotatable=0;points=[[0,0.5],[1,0.5]];portConstraint=eastwest;fontSize=16;" parent="1" vertex="1">
                    <mxGeometry x="1080" y="1462" width="160" height="26" as="geometry"/>
                </mxCell>
                <mxCell id="308" value="" style="line;strokeWidth=2;direction=south;html=1;perimeter=backbonePerimeter;points=[];outlineConnect=0;strokeColor=default;fontSize=16;fillColor=none;" parent="1" vertex="1">
                    <mxGeometry x="1273.5" y="1290" width="10" height="280" as="geometry"/>
                </mxCell>
                <mxCell id="309" value="" style="line;strokeWidth=2;direction=south;html=1;perimeter=backbonePerimeter;points=[];outlineConnect=0;strokeColor=default;fontSize=16;fillColor=none;" parent="1" vertex="1">
                    <mxGeometry x="1510" y="1290" width="10" height="280" as="geometry"/>
                </mxCell>
                <mxCell id="310" value="" style="line;strokeWidth=2;direction=south;html=1;perimeter=backbonePerimeter;points=[];outlineConnect=0;strokeColor=default;fontSize=16;fillColor=none;" parent="1" vertex="1">
                    <mxGeometry x="1759.12" y="1290" width="10" height="280" as="geometry"/>
                </mxCell>
                <mxCell id="311" value="" style="line;strokeWidth=2;direction=south;html=1;perimeter=backbonePerimeter;points=[];outlineConnect=0;strokeColor=default;fontSize=16;fillColor=none;" parent="1" vertex="1">
                    <mxGeometry x="1990" y="1290" width="10" height="280" as="geometry"/>
                </mxCell>
                <mxCell id="312" value="" style="rounded=0;whiteSpace=wrap;html=1;strokeColor=default;fontSize=16;fillColor=none;strokeWidth=2;" parent="1" vertex="1">
                    <mxGeometry x="1040" y="1290" width="1192.5" height="280" as="geometry"/>
                </mxCell>
                <mxCell id="313" value="Channel class" style="swimlane;fontStyle=1;align=center;verticalAlign=top;childLayout=stackLayout;horizontal=1;startSize=26;horizontalStack=0;resizeParent=1;resizeParentMax=0;resizeLast=0;collapsible=1;marginBottom=0;strokeColor=default;fontSize=16;" parent="1" vertex="1">
                    <mxGeometry x="1320" y="1350" width="160" height="86" as="geometry"/>
                </mxCell>
                <mxCell id="314" value="Fd" style="text;strokeColor=none;fillColor=none;align=left;verticalAlign=top;spacingLeft=4;spacingRight=4;overflow=hidden;rotatable=0;points=[[0,0.5],[1,0.5]];portConstraint=eastwest;fontSize=16;" parent="313" vertex="1">
                    <mxGeometry y="26" width="160" height="26" as="geometry"/>
                </mxCell>
                <mxCell id="315" value="" style="line;strokeWidth=1;fillColor=none;align=left;verticalAlign=middle;spacingTop=-1;spacingLeft=3;spacingRight=3;rotatable=0;labelPosition=right;points=[];portConstraint=eastwest;strokeColor=inherit;fontSize=16;" parent="313" vertex="1">
                    <mxGeometry y="52" width="160" height="8" as="geometry"/>
                </mxCell>
                <mxCell id="316" value="User container" style="text;strokeColor=none;fillColor=none;align=left;verticalAlign=top;spacingLeft=4;spacingRight=4;overflow=hidden;rotatable=0;points=[[0,0.5],[1,0.5]];portConstraint=eastwest;fontSize=16;" parent="313" vertex="1">
                    <mxGeometry y="60" width="160" height="26" as="geometry"/>
                </mxCell>
                <mxCell id="317" value="channel name" style="text;strokeColor=default;fillColor=none;align=left;verticalAlign=top;spacingLeft=4;spacingRight=4;overflow=hidden;rotatable=0;points=[[0,0.5],[1,0.5]];portConstraint=eastwest;fontSize=16;" parent="1" vertex="1">
                    <mxGeometry x="1320" y="1436" width="160" height="26" as="geometry"/>
                </mxCell>
                <mxCell id="318" value="broadcast method" style="text;strokeColor=default;fillColor=none;align=left;verticalAlign=top;spacingLeft=4;spacingRight=4;overflow=hidden;rotatable=0;points=[[0,0.5],[1,0.5]];portConstraint=eastwest;fontSize=16;" parent="1" vertex="1">
                    <mxGeometry x="1320" y="1462" width="160" height="26" as="geometry"/>
                </mxCell>
                <mxCell id="319" value="Channel class" style="swimlane;fontStyle=1;align=center;verticalAlign=top;childLayout=stackLayout;horizontal=1;startSize=26;horizontalStack=0;resizeParent=1;resizeParentMax=0;resizeLast=0;collapsible=1;marginBottom=0;strokeColor=default;fontSize=16;" parent="1" vertex="1">
                    <mxGeometry x="1560" y="1360" width="160" height="86" as="geometry"/>
                </mxCell>
                <mxCell id="320" value="Fd" style="text;strokeColor=none;fillColor=none;align=left;verticalAlign=top;spacingLeft=4;spacingRight=4;overflow=hidden;rotatable=0;points=[[0,0.5],[1,0.5]];portConstraint=eastwest;fontSize=16;" parent="319" vertex="1">
                    <mxGeometry y="26" width="160" height="26" as="geometry"/>
                </mxCell>
                <mxCell id="321" value="" style="line;strokeWidth=1;fillColor=none;align=left;verticalAlign=middle;spacingTop=-1;spacingLeft=3;spacingRight=3;rotatable=0;labelPosition=right;points=[];portConstraint=eastwest;strokeColor=inherit;fontSize=16;" parent="319" vertex="1">
                    <mxGeometry y="52" width="160" height="8" as="geometry"/>
                </mxCell>
                <mxCell id="322" value="User container" style="text;strokeColor=none;fillColor=none;align=left;verticalAlign=top;spacingLeft=4;spacingRight=4;overflow=hidden;rotatable=0;points=[[0,0.5],[1,0.5]];portConstraint=eastwest;fontSize=16;" parent="319" vertex="1">
                    <mxGeometry y="60" width="160" height="26" as="geometry"/>
                </mxCell>
                <mxCell id="323" value="channel name" style="text;strokeColor=default;fillColor=none;align=left;verticalAlign=top;spacingLeft=4;spacingRight=4;overflow=hidden;rotatable=0;points=[[0,0.5],[1,0.5]];portConstraint=eastwest;fontSize=16;" parent="1" vertex="1">
                    <mxGeometry x="1560" y="1446" width="160" height="26" as="geometry"/>
                </mxCell>
                <mxCell id="324" value="broadcast method" style="text;strokeColor=default;fillColor=none;align=left;verticalAlign=top;spacingLeft=4;spacingRight=4;overflow=hidden;rotatable=0;points=[[0,0.5],[1,0.5]];portConstraint=eastwest;fontSize=16;" parent="1" vertex="1">
                    <mxGeometry x="1560" y="1472" width="160" height="26" as="geometry"/>
                </mxCell>
                <mxCell id="325" value="Channel class" style="swimlane;fontStyle=1;align=center;verticalAlign=top;childLayout=stackLayout;horizontal=1;startSize=26;horizontalStack=0;resizeParent=1;resizeParentMax=0;resizeLast=0;collapsible=1;marginBottom=0;strokeColor=default;fontSize=16;" parent="1" vertex="1">
                    <mxGeometry x="1800" y="1360" width="160" height="86" as="geometry"/>
                </mxCell>
                <mxCell id="326" value="Fd" style="text;strokeColor=none;fillColor=none;align=left;verticalAlign=top;spacingLeft=4;spacingRight=4;overflow=hidden;rotatable=0;points=[[0,0.5],[1,0.5]];portConstraint=eastwest;fontSize=16;" parent="325" vertex="1">
                    <mxGeometry y="26" width="160" height="26" as="geometry"/>
                </mxCell>
                <mxCell id="327" value="" style="line;strokeWidth=1;fillColor=none;align=left;verticalAlign=middle;spacingTop=-1;spacingLeft=3;spacingRight=3;rotatable=0;labelPosition=right;points=[];portConstraint=eastwest;strokeColor=inherit;fontSize=16;" parent="325" vertex="1">
                    <mxGeometry y="52" width="160" height="8" as="geometry"/>
                </mxCell>
                <mxCell id="328" value="User container" style="text;strokeColor=none;fillColor=none;align=left;verticalAlign=top;spacingLeft=4;spacingRight=4;overflow=hidden;rotatable=0;points=[[0,0.5],[1,0.5]];portConstraint=eastwest;fontSize=16;" parent="325" vertex="1">
                    <mxGeometry y="60" width="160" height="26" as="geometry"/>
                </mxCell>
                <mxCell id="329" value="channel name" style="text;strokeColor=default;fillColor=none;align=left;verticalAlign=top;spacingLeft=4;spacingRight=4;overflow=hidden;rotatable=0;points=[[0,0.5],[1,0.5]];portConstraint=eastwest;fontSize=16;" parent="1" vertex="1">
                    <mxGeometry x="1800" y="1446" width="160" height="26" as="geometry"/>
                </mxCell>
                <mxCell id="330" value="broadcast method" style="text;strokeColor=default;fillColor=none;align=left;verticalAlign=top;spacingLeft=4;spacingRight=4;overflow=hidden;rotatable=0;points=[[0,0.5],[1,0.5]];portConstraint=eastwest;fontSize=16;" parent="1" vertex="1">
                    <mxGeometry x="1800" y="1472" width="160" height="26" as="geometry"/>
                </mxCell>
                <mxCell id="331" value="Channel class" style="swimlane;fontStyle=1;align=center;verticalAlign=top;childLayout=stackLayout;horizontal=1;startSize=26;horizontalStack=0;resizeParent=1;resizeParentMax=0;resizeLast=0;collapsible=1;marginBottom=0;strokeColor=default;fontSize=16;" parent="1" vertex="1">
                    <mxGeometry x="2040" y="1360" width="160" height="86" as="geometry"/>
                </mxCell>
                <mxCell id="332" value="Fd" style="text;strokeColor=none;fillColor=none;align=left;verticalAlign=top;spacingLeft=4;spacingRight=4;overflow=hidden;rotatable=0;points=[[0,0.5],[1,0.5]];portConstraint=eastwest;fontSize=16;" parent="331" vertex="1">
                    <mxGeometry y="26" width="160" height="26" as="geometry"/>
                </mxCell>
                <mxCell id="333" value="" style="line;strokeWidth=1;fillColor=none;align=left;verticalAlign=middle;spacingTop=-1;spacingLeft=3;spacingRight=3;rotatable=0;labelPosition=right;points=[];portConstraint=eastwest;strokeColor=inherit;fontSize=16;" parent="331" vertex="1">
                    <mxGeometry y="52" width="160" height="8" as="geometry"/>
                </mxCell>
                <mxCell id="334" value="User container" style="text;strokeColor=none;fillColor=none;align=left;verticalAlign=top;spacingLeft=4;spacingRight=4;overflow=hidden;rotatable=0;points=[[0,0.5],[1,0.5]];portConstraint=eastwest;fontSize=16;" parent="331" vertex="1">
                    <mxGeometry y="60" width="160" height="26" as="geometry"/>
                </mxCell>
                <mxCell id="335" value="channel name" style="text;strokeColor=default;fillColor=none;align=left;verticalAlign=top;spacingLeft=4;spacingRight=4;overflow=hidden;rotatable=0;points=[[0,0.5],[1,0.5]];portConstraint=eastwest;fontSize=16;" parent="1" vertex="1">
                    <mxGeometry x="2040" y="1446" width="160" height="26" as="geometry"/>
                </mxCell>
                <mxCell id="336" value="broadcast method" style="text;strokeColor=default;fillColor=none;align=left;verticalAlign=top;spacingLeft=4;spacingRight=4;overflow=hidden;rotatable=0;points=[[0,0.5],[1,0.5]];portConstraint=eastwest;fontSize=16;" parent="1" vertex="1">
                    <mxGeometry x="2040" y="1472" width="160" height="26" as="geometry"/>
                </mxCell>
                <mxCell id="339" style="edgeStyle=none;html=1;exitX=1;exitY=0.5;exitDx=0;exitDy=0;fontSize=16;entryX=0;entryY=0;entryDx=0;entryDy=30;entryPerimeter=0;" parent="1" source="338" target="348" edge="1">
                    <mxGeometry relative="1" as="geometry">
                        <mxPoint x="880" y="1920" as="targetPoint"/>
                        <Array as="points">
                            <mxPoint x="800" y="449"/>
                            <mxPoint x="800" y="1840"/>
                        </Array>
                    </mxGeometry>
                </mxCell>
                <mxCell id="338" value="Command container" style="shape=hexagon;perimeter=hexagonPerimeter2;whiteSpace=wrap;html=1;fixedSize=1;fontColor=#FFFFFF;fillColor=none;" parent="1" vertex="1">
                    <mxGeometry x="440" y="434" width="130" height="30" as="geometry"/>
                </mxCell>
                <mxCell id="340" value="Command class" style="swimlane;fontStyle=1;align=center;verticalAlign=top;childLayout=stackLayout;horizontal=1;startSize=26;horizontalStack=0;resizeParent=1;resizeParentMax=0;resizeLast=0;collapsible=1;marginBottom=0;strokeColor=default;strokeWidth=2;fontSize=16;fillColor=none;" parent="1" vertex="1">
                    <mxGeometry x="1090" y="1807" width="160" height="86" as="geometry"/>
                </mxCell>
                <mxCell id="341" value="cmd_name" style="text;strokeColor=none;fillColor=none;align=left;verticalAlign=top;spacingLeft=4;spacingRight=4;overflow=hidden;rotatable=0;points=[[0,0.5],[1,0.5]];portConstraint=eastwest;strokeWidth=2;fontSize=16;" parent="340" vertex="1">
                    <mxGeometry y="26" width="160" height="26" as="geometry"/>
                </mxCell>
                <mxCell id="342" value="" style="line;strokeWidth=1;fillColor=none;align=left;verticalAlign=middle;spacingTop=-1;spacingLeft=3;spacingRight=3;rotatable=0;labelPosition=right;points=[];portConstraint=eastwest;strokeColor=inherit;fontSize=16;" parent="340" vertex="1">
                    <mxGeometry y="52" width="160" height="8" as="geometry"/>
                </mxCell>
                <mxCell id="343" value="execute_cmd" style="text;strokeColor=none;fillColor=none;align=left;verticalAlign=top;spacingLeft=4;spacingRight=4;overflow=hidden;rotatable=0;points=[[0,0.5],[1,0.5]];portConstraint=eastwest;strokeWidth=2;fontSize=16;" parent="340" vertex="1">
                    <mxGeometry y="60" width="160" height="26" as="geometry"/>
                </mxCell>
                <mxCell id="390" style="edgeStyle=none;html=1;exitX=1.014;exitY=0.493;exitDx=0;exitDy=0;exitPerimeter=0;entryX=0;entryY=0.5;entryDx=0;entryDy=0;fontSize=16;" parent="1" source="348" target="389" edge="1">
                    <mxGeometry relative="1" as="geometry"/>
                </mxCell>
                <mxCell id="348" value="Command map" style="shape=cube;whiteSpace=wrap;html=1;boundedLbl=1;backgroundOutline=1;darkOpacity=0.05;darkOpacity2=0.1;strokeColor=default;fontSize=16;" parent="1" vertex="1">
                    <mxGeometry x="890" y="1810" width="120" height="80" as="geometry"/>
                </mxCell>
                <mxCell id="349" value="Command class" style="swimlane;fontStyle=1;align=center;verticalAlign=top;childLayout=stackLayout;horizontal=1;startSize=26;horizontalStack=0;resizeParent=1;resizeParentMax=0;resizeLast=0;collapsible=1;marginBottom=0;strokeColor=default;strokeWidth=2;fontSize=16;fillColor=none;" parent="1" vertex="1">
                    <mxGeometry x="1330" y="1807" width="160" height="86" as="geometry"/>
                </mxCell>
                <mxCell id="350" value="cmd_name" style="text;strokeColor=none;fillColor=none;align=left;verticalAlign=top;spacingLeft=4;spacingRight=4;overflow=hidden;rotatable=0;points=[[0,0.5],[1,0.5]];portConstraint=eastwest;strokeWidth=2;fontSize=16;" parent="349" vertex="1">
                    <mxGeometry y="26" width="160" height="26" as="geometry"/>
                </mxCell>
                <mxCell id="351" value="" style="line;strokeWidth=1;fillColor=none;align=left;verticalAlign=middle;spacingTop=-1;spacingLeft=3;spacingRight=3;rotatable=0;labelPosition=right;points=[];portConstraint=eastwest;strokeColor=inherit;fontSize=16;" parent="349" vertex="1">
                    <mxGeometry y="52" width="160" height="8" as="geometry"/>
                </mxCell>
                <mxCell id="352" value="execute_cmd" style="text;strokeColor=none;fillColor=none;align=left;verticalAlign=top;spacingLeft=4;spacingRight=4;overflow=hidden;rotatable=0;points=[[0,0.5],[1,0.5]];portConstraint=eastwest;strokeWidth=2;fontSize=16;" parent="349" vertex="1">
                    <mxGeometry y="60" width="160" height="26" as="geometry"/>
                </mxCell>
                <mxCell id="357" value="Command class" style="swimlane;fontStyle=1;align=center;verticalAlign=top;childLayout=stackLayout;horizontal=1;startSize=26;horizontalStack=0;resizeParent=1;resizeParentMax=0;resizeLast=0;collapsible=1;marginBottom=0;strokeColor=default;strokeWidth=2;fontSize=16;fillColor=none;" parent="1" vertex="1">
                    <mxGeometry x="1570" y="1807" width="160" height="86" as="geometry"/>
                </mxCell>
                <mxCell id="358" value="cmd_name" style="text;strokeColor=none;fillColor=none;align=left;verticalAlign=top;spacingLeft=4;spacingRight=4;overflow=hidden;rotatable=0;points=[[0,0.5],[1,0.5]];portConstraint=eastwest;strokeWidth=2;fontSize=16;" parent="357" vertex="1">
                    <mxGeometry y="26" width="160" height="26" as="geometry"/>
                </mxCell>
                <mxCell id="359" value="" style="line;strokeWidth=1;fillColor=none;align=left;verticalAlign=middle;spacingTop=-1;spacingLeft=3;spacingRight=3;rotatable=0;labelPosition=right;points=[];portConstraint=eastwest;strokeColor=inherit;fontSize=16;" parent="357" vertex="1">
                    <mxGeometry y="52" width="160" height="8" as="geometry"/>
                </mxCell>
                <mxCell id="360" value="execute_cmd" style="text;strokeColor=none;fillColor=none;align=left;verticalAlign=top;spacingLeft=4;spacingRight=4;overflow=hidden;rotatable=0;points=[[0,0.5],[1,0.5]];portConstraint=eastwest;strokeWidth=2;fontSize=16;" parent="357" vertex="1">
                    <mxGeometry y="60" width="160" height="26" as="geometry"/>
                </mxCell>
                <mxCell id="361" value="Command class" style="swimlane;fontStyle=1;align=center;verticalAlign=top;childLayout=stackLayout;horizontal=1;startSize=26;horizontalStack=0;resizeParent=1;resizeParentMax=0;resizeLast=0;collapsible=1;marginBottom=0;strokeColor=default;strokeWidth=2;fontSize=16;fillColor=none;" parent="1" vertex="1">
                    <mxGeometry x="1810" y="1807" width="160" height="86" as="geometry"/>
                </mxCell>
                <mxCell id="362" value="cmd_name" style="text;strokeColor=none;fillColor=none;align=left;verticalAlign=top;spacingLeft=4;spacingRight=4;overflow=hidden;rotatable=0;points=[[0,0.5],[1,0.5]];portConstraint=eastwest;strokeWidth=2;fontSize=16;" parent="361" vertex="1">
                    <mxGeometry y="26" width="160" height="26" as="geometry"/>
                </mxCell>
                <mxCell id="363" value="" style="line;strokeWidth=1;fillColor=none;align=left;verticalAlign=middle;spacingTop=-1;spacingLeft=3;spacingRight=3;rotatable=0;labelPosition=right;points=[];portConstraint=eastwest;strokeColor=inherit;fontSize=16;" parent="361" vertex="1">
                    <mxGeometry y="52" width="160" height="8" as="geometry"/>
                </mxCell>
                <mxCell id="364" value="execute_cmd" style="text;strokeColor=none;fillColor=none;align=left;verticalAlign=top;spacingLeft=4;spacingRight=4;overflow=hidden;rotatable=0;points=[[0,0.5],[1,0.5]];portConstraint=eastwest;strokeWidth=2;fontSize=16;" parent="361" vertex="1">
                    <mxGeometry y="60" width="160" height="26" as="geometry"/>
                </mxCell>
                <mxCell id="365" value="Command class" style="swimlane;fontStyle=1;align=center;verticalAlign=top;childLayout=stackLayout;horizontal=1;startSize=26;horizontalStack=0;resizeParent=1;resizeParentMax=0;resizeLast=0;collapsible=1;marginBottom=0;strokeColor=default;strokeWidth=2;fontSize=16;fillColor=none;" parent="1" vertex="1">
                    <mxGeometry x="2050" y="1807" width="160" height="86" as="geometry"/>
                </mxCell>
                <mxCell id="366" value="cmd_name" style="text;strokeColor=none;fillColor=none;align=left;verticalAlign=top;spacingLeft=4;spacingRight=4;overflow=hidden;rotatable=0;points=[[0,0.5],[1,0.5]];portConstraint=eastwest;strokeWidth=2;fontSize=16;" parent="365" vertex="1">
                    <mxGeometry y="26" width="160" height="26" as="geometry"/>
                </mxCell>
                <mxCell id="367" value="" style="line;strokeWidth=1;fillColor=none;align=left;verticalAlign=middle;spacingTop=-1;spacingLeft=3;spacingRight=3;rotatable=0;labelPosition=right;points=[];portConstraint=eastwest;strokeColor=inherit;fontSize=16;" parent="365" vertex="1">
                    <mxGeometry y="52" width="160" height="8" as="geometry"/>
                </mxCell>
                <mxCell id="368" value="execute_cmd" style="text;strokeColor=none;fillColor=none;align=left;verticalAlign=top;spacingLeft=4;spacingRight=4;overflow=hidden;rotatable=0;points=[[0,0.5],[1,0.5]];portConstraint=eastwest;strokeWidth=2;fontSize=16;" parent="365" vertex="1">
                    <mxGeometry y="60" width="160" height="26" as="geometry"/>
                </mxCell>
                <mxCell id="369" value="Command class" style="swimlane;fontStyle=1;align=center;verticalAlign=top;childLayout=stackLayout;horizontal=1;startSize=26;horizontalStack=0;resizeParent=1;resizeParentMax=0;resizeLast=0;collapsible=1;marginBottom=0;strokeColor=default;strokeWidth=2;fontSize=16;fillColor=none;" parent="1" vertex="1">
                    <mxGeometry x="2290" y="1807" width="160" height="86" as="geometry"/>
                </mxCell>
                <mxCell id="370" value="cmd_name" style="text;strokeColor=none;fillColor=none;align=left;verticalAlign=top;spacingLeft=4;spacingRight=4;overflow=hidden;rotatable=0;points=[[0,0.5],[1,0.5]];portConstraint=eastwest;strokeWidth=2;fontSize=16;" parent="369" vertex="1">
                    <mxGeometry y="26" width="160" height="26" as="geometry"/>
                </mxCell>
                <mxCell id="371" value="" style="line;strokeWidth=1;fillColor=none;align=left;verticalAlign=middle;spacingTop=-1;spacingLeft=3;spacingRight=3;rotatable=0;labelPosition=right;points=[];portConstraint=eastwest;strokeColor=inherit;fontSize=16;" parent="369" vertex="1">
                    <mxGeometry y="52" width="160" height="8" as="geometry"/>
                </mxCell>
                <mxCell id="372" value="execute_cmd" style="text;strokeColor=none;fillColor=none;align=left;verticalAlign=top;spacingLeft=4;spacingRight=4;overflow=hidden;rotatable=0;points=[[0,0.5],[1,0.5]];portConstraint=eastwest;strokeWidth=2;fontSize=16;" parent="369" vertex="1">
                    <mxGeometry y="60" width="160" height="26" as="geometry"/>
                </mxCell>
                <mxCell id="373" value="Command class" style="swimlane;fontStyle=1;align=center;verticalAlign=top;childLayout=stackLayout;horizontal=1;startSize=26;horizontalStack=0;resizeParent=1;resizeParentMax=0;resizeLast=0;collapsible=1;marginBottom=0;strokeColor=default;strokeWidth=2;fontSize=16;fillColor=none;" parent="1" vertex="1">
                    <mxGeometry x="2530" y="1807" width="160" height="86" as="geometry"/>
                </mxCell>
                <mxCell id="374" value="cmd_name" style="text;strokeColor=none;fillColor=none;align=left;verticalAlign=top;spacingLeft=4;spacingRight=4;overflow=hidden;rotatable=0;points=[[0,0.5],[1,0.5]];portConstraint=eastwest;strokeWidth=2;fontSize=16;" parent="373" vertex="1">
                    <mxGeometry y="26" width="160" height="26" as="geometry"/>
                </mxCell>
                <mxCell id="375" value="" style="line;strokeWidth=1;fillColor=none;align=left;verticalAlign=middle;spacingTop=-1;spacingLeft=3;spacingRight=3;rotatable=0;labelPosition=right;points=[];portConstraint=eastwest;strokeColor=inherit;fontSize=16;" parent="373" vertex="1">
                    <mxGeometry y="52" width="160" height="8" as="geometry"/>
                </mxCell>
                <mxCell id="376" value="execute_cmd" style="text;strokeColor=none;fillColor=none;align=left;verticalAlign=top;spacingLeft=4;spacingRight=4;overflow=hidden;rotatable=0;points=[[0,0.5],[1,0.5]];portConstraint=eastwest;strokeWidth=2;fontSize=16;" parent="373" vertex="1">
                    <mxGeometry y="60" width="160" height="26" as="geometry"/>
                </mxCell>
                <mxCell id="381" value="Command class" style="swimlane;fontStyle=1;align=center;verticalAlign=top;childLayout=stackLayout;horizontal=1;startSize=26;horizontalStack=0;resizeParent=1;resizeParentMax=0;resizeLast=0;collapsible=1;marginBottom=0;strokeColor=default;strokeWidth=2;fontSize=16;fillColor=none;" parent="1" vertex="1">
                    <mxGeometry x="2770" y="1807" width="160" height="86" as="geometry"/>
                </mxCell>
                <mxCell id="382" value="cmd_name" style="text;strokeColor=none;fillColor=none;align=left;verticalAlign=top;spacingLeft=4;spacingRight=4;overflow=hidden;rotatable=0;points=[[0,0.5],[1,0.5]];portConstraint=eastwest;strokeWidth=2;fontSize=16;" parent="381" vertex="1">
                    <mxGeometry y="26" width="160" height="26" as="geometry"/>
                </mxCell>
                <mxCell id="383" value="" style="line;strokeWidth=1;fillColor=none;align=left;verticalAlign=middle;spacingTop=-1;spacingLeft=3;spacingRight=3;rotatable=0;labelPosition=right;points=[];portConstraint=eastwest;strokeColor=inherit;fontSize=16;" parent="381" vertex="1">
                    <mxGeometry y="52" width="160" height="8" as="geometry"/>
                </mxCell>
                <mxCell id="384" value="execute_cmd" style="text;strokeColor=none;fillColor=none;align=left;verticalAlign=top;spacingLeft=4;spacingRight=4;overflow=hidden;rotatable=0;points=[[0,0.5],[1,0.5]];portConstraint=eastwest;strokeWidth=2;fontSize=16;" parent="381" vertex="1">
                    <mxGeometry y="60" width="160" height="26" as="geometry"/>
                </mxCell>
                <mxCell id="385" value="Command class" style="swimlane;fontStyle=1;align=center;verticalAlign=top;childLayout=stackLayout;horizontal=1;startSize=26;horizontalStack=0;resizeParent=1;resizeParentMax=0;resizeLast=0;collapsible=1;marginBottom=0;strokeColor=default;strokeWidth=2;fontSize=16;fillColor=none;" parent="1" vertex="1">
                    <mxGeometry x="3010" y="1807" width="160" height="86" as="geometry"/>
                </mxCell>
                <mxCell id="386" value="cmd_name" style="text;strokeColor=none;fillColor=none;align=left;verticalAlign=top;spacingLeft=4;spacingRight=4;overflow=hidden;rotatable=0;points=[[0,0.5],[1,0.5]];portConstraint=eastwest;strokeWidth=2;fontSize=16;" parent="385" vertex="1">
                    <mxGeometry y="26" width="160" height="26" as="geometry"/>
                </mxCell>
                <mxCell id="387" value="" style="line;strokeWidth=1;fillColor=none;align=left;verticalAlign=middle;spacingTop=-1;spacingLeft=3;spacingRight=3;rotatable=0;labelPosition=right;points=[];portConstraint=eastwest;strokeColor=inherit;fontSize=16;" parent="385" vertex="1">
                    <mxGeometry y="52" width="160" height="8" as="geometry"/>
                </mxCell>
                <mxCell id="388" value="execute_cmd" style="text;strokeColor=none;fillColor=none;align=left;verticalAlign=top;spacingLeft=4;spacingRight=4;overflow=hidden;rotatable=0;points=[[0,0.5],[1,0.5]];portConstraint=eastwest;strokeWidth=2;fontSize=16;" parent="385" vertex="1">
                    <mxGeometry y="60" width="160" height="26" as="geometry"/>
                </mxCell>
                <mxCell id="389" value="" style="rounded=0;whiteSpace=wrap;html=1;strokeColor=default;fontSize=16;fillColor=none;strokeWidth=2;" parent="1" vertex="1">
                    <mxGeometry x="1051.88" y="1770" width="2156.25" height="160" as="geometry"/>
                </mxCell>
                <mxCell id="394" style="edgeStyle=none;html=1;exitX=1;exitY=0.5;exitDx=0;exitDy=0;" parent="1" source="393" target="8" edge="1">
                    <mxGeometry relative="1" as="geometry"/>
                </mxCell>
                <mxCell id="395" style="edgeStyle=none;html=1;exitX=1;exitY=0.5;exitDx=0;exitDy=0;entryX=0;entryY=0.5;entryDx=0;entryDy=0;" parent="1" source="393" target="234" edge="1">
                    <mxGeometry relative="1" as="geometry">
                        <Array as="points">
                            <mxPoint x="160" y="260"/>
                            <mxPoint x="160" y="160"/>
                            <mxPoint x="390" y="160"/>
                            <mxPoint x="390" y="354"/>
                        </Array>
                    </mxGeometry>
                </mxCell>
                <mxCell id="393" value="user" style="rounded=1;whiteSpace=wrap;html=1;align=center;" parent="1" vertex="1">
                    <mxGeometry x="30" y="240" width="80" height="40" as="geometry"/>
                </mxCell>
                <mxCell id="403" style="edgeStyle=none;html=1;exitX=1;exitY=0.5;exitDx=0;exitDy=0;" edge="1" parent="1" source="401" target="404">
                    <mxGeometry relative="1" as="geometry">
                        <mxPoint x="1760" y="-110.47058823529414" as="targetPoint"/>
                    </mxGeometry>
                </mxCell>
                <mxCell id="401" value="COmmand handleer OLIVIER" style="whiteSpace=wrap;html=1;fillColor=#FF3333;fontColor=#FFFFFF;rounded=0;" vertex="1" parent="1">
                    <mxGeometry x="1296.01" y="-130" width="120" height="40" as="geometry"/>
                </mxCell>
                <mxCell id="404" value="" style="rounded=0;whiteSpace=wrap;html=1;fillColor=none;" vertex="1" parent="1">
                    <mxGeometry x="1700" y="-189.77" width="1340" height="159.53" as="geometry"/>
                </mxCell>
                <mxCell id="405" value="vector command" style="text;html=1;strokeColor=none;fillColor=none;align=center;verticalAlign=middle;whiteSpace=wrap;rounded=0;" vertex="1" parent="1">
                    <mxGeometry x="1700" y="-219.77" width="120" height="30" as="geometry"/>
                </mxCell>
                <mxCell id="411" style="edgeStyle=none;html=1;exitX=1;exitY=0.5;exitDx=0;exitDy=0;entryX=0;entryY=0.5;entryDx=0;entryDy=0;" edge="1" parent="1" source="406" target="407">
                    <mxGeometry relative="1" as="geometry"/>
                </mxCell>
                <mxCell id="406" value="" style="rounded=0;whiteSpace=wrap;html=1;fillColor=none;" vertex="1" parent="1">
                    <mxGeometry x="1750" y="-140" width="120" height="60" as="geometry"/>
                </mxCell>
                <mxCell id="412" style="edgeStyle=none;html=1;exitX=1;exitY=0.5;exitDx=0;exitDy=0;entryX=0;entryY=0.5;entryDx=0;entryDy=0;" edge="1" parent="1" source="407" target="408">
                    <mxGeometry relative="1" as="geometry"/>
                </mxCell>
                <mxCell id="407" value="" style="rounded=0;whiteSpace=wrap;html=1;fillColor=none;" vertex="1" parent="1">
                    <mxGeometry x="1910" y="-140" width="120" height="60" as="geometry"/>
                </mxCell>
                <mxCell id="413" style="edgeStyle=none;html=1;exitX=1;exitY=0.5;exitDx=0;exitDy=0;entryX=0;entryY=0.5;entryDx=0;entryDy=0;" edge="1" parent="1" source="408" target="409">
                    <mxGeometry relative="1" as="geometry"/>
                </mxCell>
                <mxCell id="408" value="" style="rounded=0;whiteSpace=wrap;html=1;fillColor=none;" vertex="1" parent="1">
                    <mxGeometry x="2070" y="-140" width="120" height="60" as="geometry"/>
                </mxCell>
                <mxCell id="414" style="edgeStyle=none;html=1;exitX=1;exitY=0.5;exitDx=0;exitDy=0;entryX=0;entryY=0.5;entryDx=0;entryDy=0;" edge="1" parent="1" source="409" target="410">
                    <mxGeometry relative="1" as="geometry"/>
                </mxCell>
                <mxCell id="517" style="edgeStyle=none;html=1;exitX=0.5;exitY=0;exitDx=0;exitDy=0;entryX=0.5;entryY=0;entryDx=0;entryDy=0;" edge="1" parent="1" source="409" target="503">
                    <mxGeometry relative="1" as="geometry">
                        <Array as="points">
                            <mxPoint x="2293" y="-300"/>
                            <mxPoint x="2490" y="-300"/>
                            <mxPoint x="2490" y="-480"/>
                            <mxPoint x="2175" y="-480"/>
                        </Array>
                    </mxGeometry>
                </mxCell>
                <mxCell id="409" value="#ch2" style="rounded=0;whiteSpace=wrap;html=1;fillColor=none;" vertex="1" parent="1">
                    <mxGeometry x="2232.5" y="-140" width="120" height="60" as="geometry"/>
                </mxCell>
                <mxCell id="419" style="edgeStyle=none;html=1;exitX=1;exitY=0.5;exitDx=0;exitDy=0;" edge="1" parent="1" source="410" target="418">
                    <mxGeometry relative="1" as="geometry"/>
                </mxCell>
                <mxCell id="518" style="edgeStyle=none;html=1;exitX=0.5;exitY=0;exitDx=0;exitDy=0;entryX=0.5;entryY=0;entryDx=0;entryDy=0;" edge="1" parent="1" source="410" target="505">
                    <mxGeometry relative="1" as="geometry">
                        <mxPoint x="2450" y="-300" as="targetPoint"/>
                        <Array as="points">
                            <mxPoint x="2450" y="-300"/>
                            <mxPoint x="2490" y="-300"/>
                            <mxPoint x="2490" y="-480"/>
                            <mxPoint x="2290" y="-480"/>
                        </Array>
                    </mxGeometry>
                </mxCell>
                <mxCell id="410" value="#ch3" style="rounded=0;whiteSpace=wrap;html=1;fillColor=none;" vertex="1" parent="1">
                    <mxGeometry x="2390" y="-140" width="120" height="60" as="geometry"/>
                </mxCell>
                <mxCell id="493" style="edgeStyle=none;html=1;entryX=0;entryY=0.5;entryDx=0;entryDy=0;" edge="1" parent="1" source="415" target="479">
                    <mxGeometry relative="1" as="geometry">
                        <Array as="points">
                            <mxPoint x="1810" y="-230"/>
                            <mxPoint x="1590" y="-230"/>
                            <mxPoint x="1590" y="-560"/>
                        </Array>
                    </mxGeometry>
                </mxCell>
                <mxCell id="415" value="&lt;b&gt;:peter20&lt;/b&gt;" style="text;html=1;strokeColor=none;fillColor=none;align=center;verticalAlign=middle;whiteSpace=wrap;rounded=0;" vertex="1" parent="1">
                    <mxGeometry x="1780" y="-125" width="60" height="30" as="geometry"/>
                </mxCell>
                <mxCell id="494" style="edgeStyle=none;html=1;entryX=1;entryY=0.5;entryDx=0;entryDy=0;" edge="1" parent="1" source="416" target="481">
                    <mxGeometry relative="1" as="geometry">
                        <Array as="points">
                            <mxPoint x="1970" y="-520"/>
                        </Array>
                    </mxGeometry>
                </mxCell>
                <mxCell id="416" value="&lt;b&gt;JOIN&lt;/b&gt;" style="text;html=1;strokeColor=none;fillColor=none;align=center;verticalAlign=middle;whiteSpace=wrap;rounded=0;" vertex="1" parent="1">
                    <mxGeometry x="1940" y="-125" width="60" height="30" as="geometry"/>
                </mxCell>
                <mxCell id="516" style="edgeStyle=none;html=1;entryX=0.5;entryY=0;entryDx=0;entryDy=0;" edge="1" parent="1" source="417" target="502">
                    <mxGeometry relative="1" as="geometry">
                        <Array as="points">
                            <mxPoint x="2140" y="-300"/>
                            <mxPoint x="2490" y="-300"/>
                            <mxPoint x="2490" y="-480"/>
                            <mxPoint x="2055" y="-480"/>
                        </Array>
                    </mxGeometry>
                </mxCell>
                <mxCell id="417" value="&lt;b&gt;#ch1&lt;/b&gt;" style="text;html=1;strokeColor=none;fillColor=none;align=center;verticalAlign=middle;whiteSpace=wrap;rounded=0;" vertex="1" parent="1">
                    <mxGeometry x="2110" y="-125" width="60" height="30" as="geometry"/>
                </mxCell>
                <mxCell id="421" style="edgeStyle=none;html=1;exitX=1;exitY=0.5;exitDx=0;exitDy=0;entryX=0;entryY=0.5;entryDx=0;entryDy=0;" edge="1" parent="1" source="418" target="420">
                    <mxGeometry relative="1" as="geometry"/>
                </mxCell>
                <mxCell id="519" style="edgeStyle=none;html=1;exitX=0.5;exitY=0;exitDx=0;exitDy=0;entryX=0.5;entryY=1;entryDx=0;entryDy=0;" edge="1" parent="1" source="418" target="510">
                    <mxGeometry relative="1" as="geometry">
                        <Array as="points">
                            <mxPoint x="2610" y="-300"/>
                            <mxPoint x="2330" y="-300"/>
                            <mxPoint x="2110" y="-300"/>
                            <mxPoint x="2055" y="-300"/>
                        </Array>
                    </mxGeometry>
                </mxCell>
                <mxCell id="418" value="key1&lt;span style=&quot;color: rgba(0, 0, 0, 0); font-family: monospace; font-size: 0px; text-align: start;&quot;&gt;%3CmxGraphModel%3E%3Croot%3E%3CmxCell%20id%3D%220%22%2F%3E%3CmxCell%20id%3D%221%22%20parent%3D%220%22%2F%3E%3CmxCell%20id%3D%222%22%20value%3D%22%23ch3%22%20style%3D%22rounded%3D0%3BwhiteSpace%3Dwrap%3Bhtml%3D1%3BfillColor%3Dnone%3B%22%20vertex%3D%221%22%20parent%3D%221%22%3E%3CmxGeometry%20x%3D%222390%22%20y%3D%22-140%22%20width%3D%22120%22%20height%3D%2260%22%20as%3D%22geometry%22%2F%3E%3C%2FmxCell%3E%3C%2Froot%3E%3C%2FmxGraphModel%3E&lt;/span&gt;" style="rounded=0;whiteSpace=wrap;html=1;fillColor=none;" vertex="1" parent="1">
                    <mxGeometry x="2550" y="-140" width="120" height="60" as="geometry"/>
                </mxCell>
                <mxCell id="423" style="edgeStyle=none;html=1;exitX=1;exitY=0.5;exitDx=0;exitDy=0;entryX=0;entryY=0.5;entryDx=0;entryDy=0;" edge="1" parent="1" source="420" target="422">
                    <mxGeometry relative="1" as="geometry"/>
                </mxCell>
                <mxCell id="520" style="edgeStyle=none;html=1;exitX=0.5;exitY=0;exitDx=0;exitDy=0;entryX=0.5;entryY=1;entryDx=0;entryDy=0;" edge="1" parent="1" source="420" target="512">
                    <mxGeometry relative="1" as="geometry">
                        <Array as="points">
                            <mxPoint x="2770" y="-300"/>
                            <mxPoint x="2175" y="-300"/>
                        </Array>
                    </mxGeometry>
                </mxCell>
                <mxCell id="420" value="null" style="rounded=0;whiteSpace=wrap;html=1;fillColor=none;" vertex="1" parent="1">
                    <mxGeometry x="2710" y="-140" width="120" height="60" as="geometry"/>
                </mxCell>
                <mxCell id="521" style="edgeStyle=none;html=1;exitX=0.5;exitY=0;exitDx=0;exitDy=0;entryX=0.5;entryY=1;entryDx=0;entryDy=0;" edge="1" parent="1" source="422" target="514">
                    <mxGeometry relative="1" as="geometry">
                        <Array as="points">
                            <mxPoint x="2930" y="-300"/>
                            <mxPoint x="2293" y="-300"/>
                        </Array>
                    </mxGeometry>
                </mxCell>
                <mxCell id="422" value="key3" style="rounded=0;whiteSpace=wrap;html=1;fillColor=none;" vertex="1" parent="1">
                    <mxGeometry x="2870" y="-140" width="120" height="60" as="geometry"/>
                </mxCell>
                <mxCell id="476" value="" style="shape=table;startSize=0;container=1;collapsible=0;childLayout=tableLayout;fillColor=none;" vertex="1" parent="1">
                    <mxGeometry x="1708.25" y="-620" width="181.75" height="360" as="geometry"/>
                </mxCell>
                <mxCell id="477" value="" style="shape=tableRow;horizontal=0;startSize=0;swimlaneHead=0;swimlaneBody=0;top=0;left=0;bottom=0;right=0;collapsible=0;dropTarget=0;fillColor=none;points=[[0,0.5],[1,0.5]];portConstraint=eastwest;" vertex="1" parent="476">
                    <mxGeometry width="181.75" height="40" as="geometry"/>
                </mxCell>
                <mxCell id="478" value="STRUCT CMD" style="shape=partialRectangle;html=1;whiteSpace=wrap;connectable=0;overflow=hidden;fillColor=none;top=0;left=0;bottom=0;right=0;pointerEvents=1;" vertex="1" parent="477">
                    <mxGeometry width="182" height="40" as="geometry">
                        <mxRectangle width="182" height="40" as="alternateBounds"/>
                    </mxGeometry>
                </mxCell>
                <mxCell id="479" value="" style="shape=tableRow;horizontal=0;startSize=0;swimlaneHead=0;swimlaneBody=0;top=0;left=0;bottom=0;right=0;collapsible=0;dropTarget=0;fillColor=none;points=[[0,0.5],[1,0.5]];portConstraint=eastwest;" vertex="1" parent="476">
                    <mxGeometry y="40" width="181.75" height="40" as="geometry"/>
                </mxCell>
                <mxCell id="480" value="prefix" style="shape=partialRectangle;html=1;whiteSpace=wrap;connectable=0;overflow=hidden;fillColor=none;top=0;left=0;bottom=0;right=0;pointerEvents=1;" vertex="1" parent="479">
                    <mxGeometry width="182" height="40" as="geometry">
                        <mxRectangle width="182" height="40" as="alternateBounds"/>
                    </mxGeometry>
                </mxCell>
                <mxCell id="481" value="" style="shape=tableRow;horizontal=0;startSize=0;swimlaneHead=0;swimlaneBody=0;top=0;left=0;bottom=0;right=0;collapsible=0;dropTarget=0;fillColor=none;points=[[0,0.5],[1,0.5]];portConstraint=eastwest;" vertex="1" parent="476">
                    <mxGeometry y="80" width="181.75" height="40" as="geometry"/>
                </mxCell>
                <mxCell id="482" value="cmd" style="shape=partialRectangle;html=1;whiteSpace=wrap;connectable=0;overflow=hidden;fillColor=none;top=0;left=0;bottom=0;right=0;pointerEvents=1;" vertex="1" parent="481">
                    <mxGeometry width="182" height="40" as="geometry">
                        <mxRectangle width="182" height="40" as="alternateBounds"/>
                    </mxGeometry>
                </mxCell>
                <mxCell id="483" value="" style="shape=tableRow;horizontal=0;startSize=0;swimlaneHead=0;swimlaneBody=0;top=0;left=0;bottom=0;right=0;collapsible=0;dropTarget=0;fillColor=none;points=[[0,0.5],[1,0.5]];portConstraint=eastwest;" vertex="1" parent="476">
                    <mxGeometry y="120" width="181.75" height="40" as="geometry"/>
                </mxCell>
                <mxCell id="484" value="mode" style="shape=partialRectangle;html=1;whiteSpace=wrap;connectable=0;overflow=hidden;fillColor=none;top=0;left=0;bottom=0;right=0;pointerEvents=1;" vertex="1" parent="483">
                    <mxGeometry width="182" height="40" as="geometry">
                        <mxRectangle width="182" height="40" as="alternateBounds"/>
                    </mxGeometry>
                </mxCell>
                <mxCell id="485" value="" style="shape=tableRow;horizontal=0;startSize=0;swimlaneHead=0;swimlaneBody=0;top=0;left=0;bottom=0;right=0;collapsible=0;dropTarget=0;fillColor=none;points=[[0,0.5],[1,0.5]];portConstraint=eastwest;" vertex="1" parent="476">
                    <mxGeometry y="160" width="181.75" height="40" as="geometry"/>
                </mxCell>
                <mxCell id="486" value="vector arg" style="shape=partialRectangle;html=1;whiteSpace=wrap;connectable=0;overflow=hidden;fillColor=none;top=0;left=0;bottom=0;right=0;pointerEvents=1;" vertex="1" parent="485">
                    <mxGeometry width="182" height="40" as="geometry">
                        <mxRectangle width="182" height="40" as="alternateBounds"/>
                    </mxGeometry>
                </mxCell>
                <mxCell id="487" value="" style="shape=tableRow;horizontal=0;startSize=0;swimlaneHead=0;swimlaneBody=0;top=0;left=0;bottom=0;right=0;collapsible=0;dropTarget=0;fillColor=none;points=[[0,0.5],[1,0.5]];portConstraint=eastwest;" vertex="1" parent="476">
                    <mxGeometry y="200" width="181.75" height="40" as="geometry"/>
                </mxCell>
                <mxCell id="488" value="password" style="shape=partialRectangle;html=1;whiteSpace=wrap;connectable=0;overflow=hidden;fillColor=none;top=0;left=0;bottom=0;right=0;pointerEvents=1;" vertex="1" parent="487">
                    <mxGeometry width="182" height="40" as="geometry">
                        <mxRectangle width="182" height="40" as="alternateBounds"/>
                    </mxGeometry>
                </mxCell>
                <mxCell id="489" value="" style="shape=tableRow;horizontal=0;startSize=0;swimlaneHead=0;swimlaneBody=0;top=0;left=0;bottom=0;right=0;collapsible=0;dropTarget=0;fillColor=none;points=[[0,0.5],[1,0.5]];portConstraint=eastwest;" vertex="1" parent="476">
                    <mxGeometry y="240" width="181.75" height="40" as="geometry"/>
                </mxCell>
                <mxCell id="490" value="client" style="shape=partialRectangle;html=1;whiteSpace=wrap;connectable=0;overflow=hidden;fillColor=none;top=0;left=0;bottom=0;right=0;pointerEvents=1;" vertex="1" parent="489">
                    <mxGeometry width="182" height="40" as="geometry">
                        <mxRectangle width="182" height="40" as="alternateBounds"/>
                    </mxGeometry>
                </mxCell>
                <mxCell id="491" value="" style="shape=tableRow;horizontal=0;startSize=0;swimlaneHead=0;swimlaneBody=0;top=0;left=0;bottom=0;right=0;collapsible=0;dropTarget=0;fillColor=none;points=[[0,0.5],[1,0.5]];portConstraint=eastwest;" vertex="1" parent="476">
                    <mxGeometry y="280" width="181.75" height="40" as="geometry"/>
                </mxCell>
                <mxCell id="492" value="channel" style="shape=partialRectangle;html=1;whiteSpace=wrap;connectable=0;overflow=hidden;fillColor=none;top=0;left=0;bottom=0;right=0;pointerEvents=1;" vertex="1" parent="491">
                    <mxGeometry width="182" height="40" as="geometry">
                        <mxRectangle width="182" height="40" as="alternateBounds"/>
                    </mxGeometry>
                </mxCell>
                <mxCell id="496" value="" style="shape=tableRow;horizontal=0;startSize=0;swimlaneHead=0;swimlaneBody=0;top=0;left=0;bottom=0;right=0;collapsible=0;dropTarget=0;fillColor=none;points=[[0,0.5],[1,0.5]];portConstraint=eastwest;" vertex="1" parent="476">
                    <mxGeometry y="320" width="181.75" height="40" as="geometry"/>
                </mxCell>
                <mxCell id="497" value="" style="shape=partialRectangle;html=1;whiteSpace=wrap;connectable=0;overflow=hidden;fillColor=none;top=0;left=0;bottom=0;right=0;pointerEvents=1;" vertex="1" parent="496">
                    <mxGeometry width="182" height="40" as="geometry">
                        <mxRectangle width="182" height="40" as="alternateBounds"/>
                    </mxGeometry>
                </mxCell>
                <mxCell id="501" style="edgeStyle=none;html=1;exitX=1;exitY=0.5;exitDx=0;exitDy=0;entryX=0;entryY=0.5;entryDx=0;entryDy=0;" edge="1" parent="1" source="485" target="502">
                    <mxGeometry relative="1" as="geometry">
                        <mxPoint x="1990" y="-440.3076923076924" as="targetPoint"/>
                    </mxGeometry>
                </mxCell>
                <mxCell id="504" style="edgeStyle=none;html=1;exitX=1;exitY=0.5;exitDx=0;exitDy=0;entryX=0;entryY=0.5;entryDx=0;entryDy=0;" edge="1" parent="1" source="502" target="503">
                    <mxGeometry relative="1" as="geometry"/>
                </mxCell>
                <mxCell id="502" value="#ch1" style="whiteSpace=wrap;html=1;shadow=0;fillColor=#FF6666;" vertex="1" parent="1">
                    <mxGeometry x="2010" y="-455" width="90" height="30" as="geometry"/>
                </mxCell>
                <mxCell id="506" style="edgeStyle=none;html=1;exitX=1;exitY=0.5;exitDx=0;exitDy=0;entryX=0;entryY=0.5;entryDx=0;entryDy=0;" edge="1" parent="1" source="503" target="505">
                    <mxGeometry relative="1" as="geometry"/>
                </mxCell>
                <mxCell id="503" value="#ch2" style="whiteSpace=wrap;html=1;shadow=0;fillColor=#FF6666;" vertex="1" parent="1">
                    <mxGeometry x="2130" y="-455" width="90" height="30" as="geometry"/>
                </mxCell>
                <mxCell id="505" value="#ch3" style="whiteSpace=wrap;html=1;shadow=0;fillColor=#FF6666;" vertex="1" parent="1">
                    <mxGeometry x="2247.5" y="-455" width="90" height="30" as="geometry"/>
                </mxCell>
                <mxCell id="508" style="edgeStyle=none;html=1;exitX=1;exitY=0.5;exitDx=0;exitDy=0;entryX=0;entryY=0.5;entryDx=0;entryDy=0;" edge="1" parent="1" source="487" target="510">
                    <mxGeometry relative="1" as="geometry">
                        <mxPoint x="2010" y="-400" as="targetPoint"/>
                    </mxGeometry>
                </mxCell>
                <mxCell id="513" style="edgeStyle=none;html=1;entryX=0;entryY=0.5;entryDx=0;entryDy=0;" edge="1" parent="1" source="510" target="512">
                    <mxGeometry relative="1" as="geometry"/>
                </mxCell>
                <mxCell id="510" value="key1" style="whiteSpace=wrap;html=1;shadow=0;fillColor=#FF6666;" vertex="1" parent="1">
                    <mxGeometry x="2010" y="-415" width="90" height="30" as="geometry"/>
                </mxCell>
                <mxCell id="515" style="edgeStyle=none;html=1;entryX=0;entryY=0.5;entryDx=0;entryDy=0;" edge="1" parent="1" source="512" target="514">
                    <mxGeometry relative="1" as="geometry"/>
                </mxCell>
                <mxCell id="512" value="null" style="whiteSpace=wrap;html=1;shadow=0;fillColor=#FF6666;" vertex="1" parent="1">
                    <mxGeometry x="2130" y="-415" width="90" height="30" as="geometry"/>
                </mxCell>
                <mxCell id="514" value="key3" style="whiteSpace=wrap;html=1;shadow=0;fillColor=#FF6666;" vertex="1" parent="1">
                    <mxGeometry x="2247.5" y="-415" width="90" height="30" as="geometry"/>
                </mxCell>
                <mxCell id="522" value="&lt;h1&gt;fill CMD&lt;/h1&gt;&lt;p&gt;le but de cette command est de prendre une struct de qui compose tout les sorte de command et la remplire selon la composition du message.&lt;/p&gt;" style="text;html=1;strokeColor=none;fillColor=none;spacing=5;spacingTop=-20;whiteSpace=wrap;overflow=hidden;rounded=0;shadow=0;" vertex="1" parent="1">
                    <mxGeometry x="2010" y="-720" width="387.5" height="120" as="geometry"/>
                </mxCell>
                <mxCell id="524" style="edgeStyle=none;html=1;exitX=1;exitY=0.5;exitDx=0;exitDy=0;entryX=1;entryY=0.3;entryDx=0;entryDy=0;" edge="1" parent="1" source="523" target="228">
                    <mxGeometry relative="1" as="geometry">
                        <Array as="points">
                            <mxPoint x="3350" y="-360"/>
                            <mxPoint x="3350" y="522"/>
                        </Array>
                    </mxGeometry>
                </mxCell>
                <mxCell id="523" value="" style="rounded=0;whiteSpace=wrap;html=1;shadow=0;fillColor=none;" vertex="1" parent="1">
                    <mxGeometry x="1510" y="-760" width="1650" height="800" as="geometry"/>
                </mxCell>
            </root>
        </mxGraphModel>
    </diagram>
</mxfile>
